<svg width="132" height="57" viewBox="0 0 132 57" fill="none" xmlns="http://www.w3.org/2000/svg">
<g filter="url(#filter0_d_173_3)">
<mask id="path-1-outside-1_173_3" maskUnits="userSpaceOnUse" x="1" y="0" width="130" height="53" fill="black">
<rect fill="white" x="1" width="130" height="53"/>
<path d="M2.65921 20V0.909712H6.69539V8.78632H14.8889V0.909712H18.9158V20H14.8889V12.1141H6.69539V20H2.65921ZM22.2435 20V0.909712H35.1071V4.23746H26.2797V8.78632H34.4453V12.1141H26.2797V16.6722H35.1444V20H22.2435ZM38.316 20V0.909712H45.8477C47.2894 0.909712 48.5199 1.1676 49.539 1.68339C50.5644 2.19296 51.3443 2.91693 51.8787 3.85528C52.4193 4.78743 52.6897 5.88425 52.6897 7.14575C52.6897 8.41346 52.4162 9.50407 51.8694 10.4176C51.3225 11.3249 50.5302 12.0209 49.4924 12.5056C48.4608 12.9903 47.2118 13.2326 45.7452 13.2326H40.7023V9.98878H45.0927C45.8633 9.98878 46.5033 9.88314 47.0129 9.67186C47.5225 9.46057 47.9016 9.14364 48.1501 8.72107C48.4049 8.2985 48.5323 7.77339 48.5323 7.14575C48.5323 6.51189 48.4049 5.97746 48.1501 5.54246C47.9016 5.10746 47.5194 4.7781 47.0036 4.55439C46.494 4.32446 45.8508 4.2095 45.0741 4.2095H42.3522V20H38.316ZM48.6255 11.3124L53.3701 20H48.9145L44.2724 11.3124H48.6255ZM59.5782 0.909712V20H55.542V0.909712H59.5782ZM62.1719 4.23746V0.909712H77.8505V4.23746H72.006V20H68.0164V4.23746H62.1719ZM81.3903 20H77.0652L83.6554 0.909712H88.8568L95.4377 20H91.1126L86.3307 5.27214H86.1816L81.3903 20ZM81.12 12.4962H91.3363V15.6469H81.12V12.4962ZM109.497 7.0805C109.366 6.62686 109.183 6.22603 108.947 5.87803C108.711 5.52382 108.422 5.22553 108.08 4.98318C107.744 4.73461 107.359 4.54507 106.924 4.41457C106.495 4.28407 106.02 4.21882 105.498 4.21882C104.522 4.21882 103.665 4.46118 102.925 4.94589C102.192 5.4306 101.62 6.13593 101.21 7.06186C100.8 7.98157 100.595 9.10636 100.595 10.4362C100.595 11.7661 100.797 12.8971 101.201 13.8292C101.605 14.7614 102.176 15.4729 102.916 15.9638C103.655 16.4485 104.528 16.6909 105.535 16.6909C106.449 16.6909 107.229 16.5293 107.875 16.2062C108.527 15.8768 109.024 15.4139 109.366 14.8173C109.714 14.2207 109.888 13.5154 109.888 12.7013L110.709 12.8225H105.787V9.78371H113.775V12.1886C113.775 13.8665 113.421 15.3082 112.713 16.5138C112.004 17.7131 111.029 18.6391 109.786 19.2916C108.543 19.9379 107.12 20.261 105.517 20.261C103.727 20.261 102.155 19.8664 100.8 19.0772C99.4452 18.2817 98.3887 17.1539 97.6306 15.6935C96.8787 14.2269 96.5027 12.4869 96.5027 10.4735C96.5027 8.92614 96.7264 7.54657 97.1738 6.33478C97.6275 5.11678 98.2613 4.08521 99.0754 3.24007C99.8895 2.39493 100.837 1.75175 101.918 1.31053C103 0.869319 104.171 0.648712 105.433 0.648712C106.514 0.648712 107.521 0.807176 108.453 1.1241C109.385 1.43482 110.211 1.87603 110.932 2.44775C111.659 3.01946 112.253 3.69993 112.713 4.48914C113.173 5.27214 113.468 6.13593 113.598 7.0805H109.497ZM116.807 20V0.909712H129.671V4.23746H120.843V8.78632H129.009V12.1141H120.843V16.6722H129.708V20H116.807ZM15.3177 39.0805C15.1872 38.6269 15.0039 38.226 14.7678 37.878C14.5316 37.5238 14.2426 37.2255 13.9009 36.9832C13.5653 36.7346 13.18 36.5451 12.745 36.4146C12.3162 36.2841 11.8408 36.2188 11.3188 36.2188C10.3432 36.2188 9.48561 36.4612 8.74611 36.9459C8.01282 37.4306 7.44111 38.1359 7.03097 39.0619C6.62082 39.9816 6.41575 41.1064 6.41575 42.4362C6.41575 43.7661 6.61772 44.8971 7.02164 45.8292C7.42557 46.7614 7.99729 47.4729 8.73679 47.9638C9.47629 48.4485 10.3494 48.6909 11.3561 48.6909C12.2696 48.6909 13.0495 48.5293 13.6958 48.2062C14.3483 47.8768 14.8454 47.4139 15.1872 46.8173C15.5352 46.2207 15.7092 45.5154 15.7092 44.7013L16.5295 44.8225H11.6078V41.7837H19.5963V44.1886C19.5963 45.8665 19.242 47.3082 18.5336 48.5138C17.8252 49.7131 16.8495 50.6391 15.6067 51.2916C14.3638 51.9379 12.9408 52.261 11.3375 52.261C9.54775 52.261 7.97554 51.8664 6.62082 51.0772C5.26611 50.2817 4.20968 49.1539 3.45154 47.6935C2.69961 46.2269 2.32364 44.4869 2.32364 42.4735C2.32364 40.9261 2.54736 39.5466 2.99479 38.3348C3.44843 37.1168 4.08229 36.0852 4.89636 35.2401C5.71043 34.3949 6.65811 33.7517 7.73939 33.3105C8.82068 32.8693 9.99207 32.6487 11.2536 32.6487C12.3349 32.6487 13.3416 32.8072 14.2737 33.1241C15.2059 33.4348 16.0324 33.876 16.7532 34.4477C17.4803 35.0195 18.0738 35.6999 18.5336 36.4891C18.9935 37.2721 19.2886 38.1359 19.4191 39.0805H15.3177ZM22.628 52V32.9097H30.1598C31.6015 32.9097 32.8319 33.1676 33.851 33.6834C34.8764 34.193 35.6563 34.9169 36.1907 35.8553C36.7314 36.7874 37.0017 37.8842 37.0017 39.1457C37.0017 40.4135 36.7283 41.5041 36.1814 42.4176C35.6345 43.3249 34.8422 44.0209 33.8044 44.5056C32.7729 44.9903 31.5238 45.2326 30.0572 45.2326H25.0143V41.9888H29.4047C30.1753 41.9888 30.8154 41.8831 31.3249 41.6719C31.8345 41.4606 32.2136 41.1436 32.4622 40.7211C32.7169 40.2985 32.8443 39.7734 32.8443 39.1457C32.8443 38.5119 32.7169 37.9775 32.4622 37.5425C32.2136 37.1075 31.8314 36.7781 31.3156 36.5544C30.806 36.3245 30.1629 36.2095 29.3861 36.2095H26.6642V52H22.628ZM32.9375 43.3124L37.6822 52H33.2265L28.5844 43.3124H32.9375ZM43.1445 52H38.8194L45.4096 32.9097H50.611L57.1919 52H52.8668L48.0849 37.2721H47.9357L43.1445 52ZM42.8742 44.4962H53.0905V47.6469H42.8742V44.4962ZM59.4896 52V32.9097H67.0214C68.4693 32.9097 69.7028 33.1862 70.722 33.7393C71.7411 34.2862 72.5179 35.0474 73.0523 36.0231C73.593 36.9925 73.8633 38.1111 73.8633 39.3788C73.8633 40.6465 73.5899 41.7651 73.043 42.7345C72.4961 43.7039 71.7038 44.459 70.666 44.9996C69.6345 45.5402 68.3854 45.8106 66.9188 45.8106H62.1183V42.576H66.2663C67.0431 42.576 67.6832 42.4424 68.1865 42.1752C68.6961 41.9018 69.0752 41.5258 69.3237 41.0473C69.5785 40.5626 69.7059 40.0064 69.7059 39.3788C69.7059 38.7449 69.5785 38.1919 69.3237 37.7196C69.0752 37.2411 68.6961 36.8713 68.1865 36.6103C67.677 36.3431 67.0307 36.2095 66.2477 36.2095H63.5258V52H59.4896ZM76.4849 52V32.9097H80.5211V40.7863H88.7147V32.9097H92.7415V52H88.7147V44.1141H80.5211V52H76.4849Z"/>
</mask>
<path d="M2.65921 20V0.909712H6.69539V8.78632H14.8889V0.909712H18.9158V20H14.8889V12.1141H6.69539V20H2.65921ZM22.2435 20V0.909712H35.1071V4.23746H26.2797V8.78632H34.4453V12.1141H26.2797V16.6722H35.1444V20H22.2435ZM38.316 20V0.909712H45.8477C47.2894 0.909712 48.5199 1.1676 49.539 1.68339C50.5644 2.19296 51.3443 2.91693 51.8787 3.85528C52.4193 4.78743 52.6897 5.88425 52.6897 7.14575C52.6897 8.41346 52.4162 9.50407 51.8694 10.4176C51.3225 11.3249 50.5302 12.0209 49.4924 12.5056C48.4608 12.9903 47.2118 13.2326 45.7452 13.2326H40.7023V9.98878H45.0927C45.8633 9.98878 46.5033 9.88314 47.0129 9.67186C47.5225 9.46057 47.9016 9.14364 48.1501 8.72107C48.4049 8.2985 48.5323 7.77339 48.5323 7.14575C48.5323 6.51189 48.4049 5.97746 48.1501 5.54246C47.9016 5.10746 47.5194 4.7781 47.0036 4.55439C46.494 4.32446 45.8508 4.2095 45.0741 4.2095H42.3522V20H38.316ZM48.6255 11.3124L53.3701 20H48.9145L44.2724 11.3124H48.6255ZM59.5782 0.909712V20H55.542V0.909712H59.5782ZM62.1719 4.23746V0.909712H77.8505V4.23746H72.006V20H68.0164V4.23746H62.1719ZM81.3903 20H77.0652L83.6554 0.909712H88.8568L95.4377 20H91.1126L86.3307 5.27214H86.1816L81.3903 20ZM81.12 12.4962H91.3363V15.6469H81.12V12.4962ZM109.497 7.0805C109.366 6.62686 109.183 6.22603 108.947 5.87803C108.711 5.52382 108.422 5.22553 108.08 4.98318C107.744 4.73461 107.359 4.54507 106.924 4.41457C106.495 4.28407 106.02 4.21882 105.498 4.21882C104.522 4.21882 103.665 4.46118 102.925 4.94589C102.192 5.4306 101.62 6.13593 101.21 7.06186C100.8 7.98157 100.595 9.10636 100.595 10.4362C100.595 11.7661 100.797 12.8971 101.201 13.8292C101.605 14.7614 102.176 15.4729 102.916 15.9638C103.655 16.4485 104.528 16.6909 105.535 16.6909C106.449 16.6909 107.229 16.5293 107.875 16.2062C108.527 15.8768 109.024 15.4139 109.366 14.8173C109.714 14.2207 109.888 13.5154 109.888 12.7013L110.709 12.8225H105.787V9.78371H113.775V12.1886C113.775 13.8665 113.421 15.3082 112.713 16.5138C112.004 17.7131 111.029 18.6391 109.786 19.2916C108.543 19.9379 107.12 20.261 105.517 20.261C103.727 20.261 102.155 19.8664 100.8 19.0772C99.4452 18.2817 98.3887 17.1539 97.6306 15.6935C96.8787 14.2269 96.5027 12.4869 96.5027 10.4735C96.5027 8.92614 96.7264 7.54657 97.1738 6.33478C97.6275 5.11678 98.2613 4.08521 99.0754 3.24007C99.8895 2.39493 100.837 1.75175 101.918 1.31053C103 0.869319 104.171 0.648712 105.433 0.648712C106.514 0.648712 107.521 0.807176 108.453 1.1241C109.385 1.43482 110.211 1.87603 110.932 2.44775C111.659 3.01946 112.253 3.69993 112.713 4.48914C113.173 5.27214 113.468 6.13593 113.598 7.0805H109.497ZM116.807 20V0.909712H129.671V4.23746H120.843V8.78632H129.009V12.1141H120.843V16.6722H129.708V20H116.807ZM15.3177 39.0805C15.1872 38.6269 15.0039 38.226 14.7678 37.878C14.5316 37.5238 14.2426 37.2255 13.9009 36.9832C13.5653 36.7346 13.18 36.5451 12.745 36.4146C12.3162 36.2841 11.8408 36.2188 11.3188 36.2188C10.3432 36.2188 9.48561 36.4612 8.74611 36.9459C8.01282 37.4306 7.44111 38.1359 7.03097 39.0619C6.62082 39.9816 6.41575 41.1064 6.41575 42.4362C6.41575 43.7661 6.61772 44.8971 7.02164 45.8292C7.42557 46.7614 7.99729 47.4729 8.73679 47.9638C9.47629 48.4485 10.3494 48.6909 11.3561 48.6909C12.2696 48.6909 13.0495 48.5293 13.6958 48.2062C14.3483 47.8768 14.8454 47.4139 15.1872 46.8173C15.5352 46.2207 15.7092 45.5154 15.7092 44.7013L16.5295 44.8225H11.6078V41.7837H19.5963V44.1886C19.5963 45.8665 19.242 47.3082 18.5336 48.5138C17.8252 49.7131 16.8495 50.6391 15.6067 51.2916C14.3638 51.9379 12.9408 52.261 11.3375 52.261C9.54775 52.261 7.97554 51.8664 6.62082 51.0772C5.26611 50.2817 4.20968 49.1539 3.45154 47.6935C2.69961 46.2269 2.32364 44.4869 2.32364 42.4735C2.32364 40.9261 2.54736 39.5466 2.99479 38.3348C3.44843 37.1168 4.08229 36.0852 4.89636 35.2401C5.71043 34.3949 6.65811 33.7517 7.73939 33.3105C8.82068 32.8693 9.99207 32.6487 11.2536 32.6487C12.3349 32.6487 13.3416 32.8072 14.2737 33.1241C15.2059 33.4348 16.0324 33.876 16.7532 34.4477C17.4803 35.0195 18.0738 35.6999 18.5336 36.4891C18.9935 37.2721 19.2886 38.1359 19.4191 39.0805H15.3177ZM22.628 52V32.9097H30.1598C31.6015 32.9097 32.8319 33.1676 33.851 33.6834C34.8764 34.193 35.6563 34.9169 36.1907 35.8553C36.7314 36.7874 37.0017 37.8842 37.0017 39.1457C37.0017 40.4135 36.7283 41.5041 36.1814 42.4176C35.6345 43.3249 34.8422 44.0209 33.8044 44.5056C32.7729 44.9903 31.5238 45.2326 30.0572 45.2326H25.0143V41.9888H29.4047C30.1753 41.9888 30.8154 41.8831 31.3249 41.6719C31.8345 41.4606 32.2136 41.1436 32.4622 40.7211C32.7169 40.2985 32.8443 39.7734 32.8443 39.1457C32.8443 38.5119 32.7169 37.9775 32.4622 37.5425C32.2136 37.1075 31.8314 36.7781 31.3156 36.5544C30.806 36.3245 30.1629 36.2095 29.3861 36.2095H26.6642V52H22.628ZM32.9375 43.3124L37.6822 52H33.2265L28.5844 43.3124H32.9375ZM43.1445 52H38.8194L45.4096 32.9097H50.611L57.1919 52H52.8668L48.0849 37.2721H47.9357L43.1445 52ZM42.8742 44.4962H53.0905V47.6469H42.8742V44.4962ZM59.4896 52V32.9097H67.0214C68.4693 32.9097 69.7028 33.1862 70.722 33.7393C71.7411 34.2862 72.5179 35.0474 73.0523 36.0231C73.593 36.9925 73.8633 38.1111 73.8633 39.3788C73.8633 40.6465 73.5899 41.7651 73.043 42.7345C72.4961 43.7039 71.7038 44.459 70.666 44.9996C69.6345 45.5402 68.3854 45.8106 66.9188 45.8106H62.1183V42.576H66.2663C67.0431 42.576 67.6832 42.4424 68.1865 42.1752C68.6961 41.9018 69.0752 41.5258 69.3237 41.0473C69.5785 40.5626 69.7059 40.0064 69.7059 39.3788C69.7059 38.7449 69.5785 38.1919 69.3237 37.7196C69.0752 37.2411 68.6961 36.8713 68.1865 36.6103C67.677 36.3431 67.0307 36.2095 66.2477 36.2095H63.5258V52H59.4896ZM76.4849 52V32.9097H80.5211V40.7863H88.7147V32.9097H92.7415V52H88.7147V44.1141H80.5211V52H76.4849Z" fill="#1065B8"/>
<path d="M2.65921 20H2.12309V20.5361H2.65921V20ZM2.65921 0.909712V0.373582H2.12309V0.909712H2.65921ZM6.69539 0.909712H7.23152V0.373582H6.69539V0.909712ZM6.69539 8.78632H6.15926V9.32245H6.69539V8.78632ZM14.8889 8.78632V9.32245H15.4251V8.78632H14.8889ZM14.8889 0.909712V0.373582H14.3528V0.909712H14.8889ZM18.9158 0.909712H19.4519V0.373582H18.9158V0.909712ZM18.9158 20V20.5361H19.4519V20H18.9158ZM14.8889 20H14.3528V20.5361H14.8889V20ZM14.8889 12.1141H15.4251V11.5779H14.8889V12.1141ZM6.69539 12.1141V11.5779H6.15926V12.1141H6.69539ZM6.69539 20V20.5361H7.23152V20H6.69539ZM3.19534 20V0.909712H2.12309V20H3.19534ZM2.65921 1.44584H6.69539V0.373582H2.65921V1.44584ZM6.15926 0.909712V8.78632H7.23152V0.909712H6.15926ZM6.69539 9.32245H14.8889V8.25019H6.69539V9.32245ZM15.4251 8.78632V0.909712H14.3528V8.78632H15.4251ZM14.8889 1.44584H18.9158V0.373582H14.8889V1.44584ZM18.3797 0.909712V20H19.4519V0.909712H18.3797ZM18.9158 19.4639H14.8889V20.5361H18.9158V19.4639ZM15.4251 20V12.1141H14.3528V20H15.4251ZM14.8889 11.5779H6.69539V12.6502H14.8889V11.5779ZM6.15926 12.1141V20H7.23152V12.1141H6.15926ZM6.69539 19.4639H2.65921V20.5361H6.69539V19.4639ZM22.2435 20H21.7074V20.5361H22.2435V20ZM22.2435 0.909712V0.373582H21.7074V0.909712H22.2435ZM35.1071 0.909712H35.6432V0.373582H35.1071V0.909712ZM35.1071 4.23746V4.77359H35.6432V4.23746H35.1071ZM26.2797 4.23746V3.70133H25.7436V4.23746H26.2797ZM26.2797 8.78632H25.7436V9.32245H26.2797V8.78632ZM34.4453 8.78632H34.9814V8.25019H34.4453V8.78632ZM34.4453 12.1141V12.6502H34.9814V12.1141H34.4453ZM26.2797 12.1141V11.5779H25.7436V12.1141H26.2797ZM26.2797 16.6722H25.7436V17.2084H26.2797V16.6722ZM35.1444 16.6722H35.6805V16.1361H35.1444V16.6722ZM35.1444 20V20.5361H35.6805V20H35.1444ZM22.7797 20V0.909712H21.7074V20H22.7797ZM22.2435 1.44584H35.1071V0.373582H22.2435V1.44584ZM34.571 0.909712V4.23746H35.6432V0.909712H34.571ZM35.1071 3.70133H26.2797V4.77359H35.1071V3.70133ZM25.7436 4.23746V8.78632H26.8158V4.23746H25.7436ZM26.2797 9.32245H34.4453V8.25019H26.2797V9.32245ZM33.9092 8.78632V12.1141H34.9814V8.78632H33.9092ZM34.4453 11.5779H26.2797V12.6502H34.4453V11.5779ZM25.7436 12.1141V16.6722H26.8158V12.1141H25.7436ZM26.2797 17.2084H35.1444V16.1361H26.2797V17.2084ZM34.6083 16.6722V20H35.6805V16.6722H34.6083ZM35.1444 19.4639H22.2435V20.5361H35.1444V19.4639ZM38.316 20H37.7799V20.5361H38.316V20ZM38.316 0.909712V0.373582H37.7799V0.909712H38.316ZM49.539 1.68339L49.2969 2.16176L49.3004 2.1635L49.539 1.68339ZM51.8787 3.85528L51.4128 4.12062L51.4149 4.12427L51.8787 3.85528ZM51.8694 10.4176L52.3285 10.6943L52.3294 10.6929L51.8694 10.4176ZM49.4924 12.5056L49.2655 12.0198L49.2644 12.0203L49.4924 12.5056ZM40.7023 13.2326H40.1662V13.7688H40.7023V13.2326ZM40.7023 9.98878V9.45265H40.1662V9.98878H40.7023ZM47.0129 9.67186L47.2183 10.1671L47.2183 10.1671L47.0129 9.67186ZM48.1501 8.72107L47.691 8.44423L47.688 8.44924L48.1501 8.72107ZM48.1501 5.54246L47.6846 5.80847L47.6875 5.81342L48.1501 5.54246ZM47.0036 4.55439L46.7831 5.04313L46.7903 5.04625L47.0036 4.55439ZM42.3522 4.2095V3.67337H41.8161V4.2095H42.3522ZM42.3522 20V20.5361H42.8883V20H42.3522ZM48.6255 11.3124L49.096 11.0555L48.9436 10.7763H48.6255V11.3124ZM53.3701 20V20.5361H54.2738L53.8407 19.743L53.3701 20ZM48.9145 20L48.4416 20.2527L48.5931 20.5361H48.9145V20ZM44.2724 11.3124V10.7763H43.3781L43.7995 11.5651L44.2724 11.3124ZM38.8521 20V0.909712H37.7799V20H38.8521ZM38.316 1.44584H45.8477V0.373582H38.316V1.44584ZM45.8477 1.44584C47.2268 1.44584 48.3699 1.69259 49.2969 2.16175L49.7811 1.20503C48.6698 0.642623 47.3521 0.373582 45.8477 0.373582V1.44584ZM49.3004 2.1635C50.2364 2.62866 50.9344 3.28055 51.4128 4.12061L52.3446 3.58995C51.7542 2.5533 50.8923 1.75726 49.7776 1.20328L49.3004 2.1635ZM51.4149 4.12427C51.9006 4.96168 52.1535 5.96245 52.1535 7.14575H53.2258C53.2258 5.80605 52.938 4.61317 52.3425 3.5863L51.4149 4.12427ZM52.1535 7.14575C52.1535 8.33509 51.8976 9.32655 51.4094 10.1422L52.3294 10.6929C52.9348 9.68159 53.2258 8.49183 53.2258 7.14575H52.1535ZM51.4102 10.1408C50.9228 10.9494 50.2151 11.5763 49.2655 12.0198L49.7193 12.9913C50.8453 12.4654 51.7222 11.7003 52.3285 10.6943L51.4102 10.1408ZM49.2644 12.0203C48.3216 12.4634 47.1547 12.6965 45.7452 12.6965V13.7688C47.2688 13.7688 48.6001 13.5172 49.7204 12.9908L49.2644 12.0203ZM45.7452 12.6965H40.7023V13.7688H45.7452V12.6965ZM41.2384 13.2326V9.98878H40.1662V13.2326H41.2384ZM40.7023 10.5249H45.0927V9.45265H40.7023V10.5249ZM45.0927 10.5249C45.9077 10.5249 46.6232 10.4138 47.2183 10.1671L46.8076 9.17661C46.3834 9.35247 45.8188 9.45265 45.0927 9.45265V10.5249ZM47.2183 10.1671C47.8213 9.91707 48.2973 9.52829 48.6122 8.9929L47.688 8.44924C47.5058 8.759 47.2237 9.00407 46.8076 9.17661L47.2183 10.1671ZM48.6093 8.9979C48.9264 8.4719 49.0684 7.84479 49.0684 7.14575H47.9962C47.9962 7.702 47.8834 8.1251 47.691 8.44424L48.6093 8.9979ZM49.0684 7.14575C49.0684 6.44085 48.9266 5.80732 48.6127 5.2715L47.6875 5.81342C47.8832 6.1476 47.9962 6.58294 47.9962 7.14575H49.0684ZM48.6156 5.27647C48.3026 4.72876 47.8253 4.32642 47.2169 4.06253L46.7903 5.04625C47.2134 5.22979 47.5005 5.48616 47.6846 5.80846L48.6156 5.27647ZM47.2241 4.06571C46.6238 3.79482 45.8992 3.67337 45.0741 3.67337V4.74563C45.8025 4.74563 46.3643 4.8541 46.7831 5.04308L47.2241 4.06571ZM45.0741 3.67337H42.3522V4.74563H45.0741V3.67337ZM41.8161 4.2095V20H42.8883V4.2095H41.8161ZM42.3522 19.4639H38.316V20.5361H42.3522V19.4639ZM48.155 11.5694L52.8996 20.257L53.8407 19.743L49.096 11.0555L48.155 11.5694ZM53.3701 19.4639H48.9145V20.5361H53.3701V19.4639ZM49.3873 19.7473L44.7453 11.0598L43.7995 11.5651L48.4416 20.2527L49.3873 19.7473ZM44.2724 11.8486H48.6255V10.7763H44.2724V11.8486ZM59.5782 0.909712H60.1143V0.373582H59.5782V0.909712ZM59.5782 20V20.5361H60.1143V20H59.5782ZM55.542 20H55.0059V20.5361H55.542V20ZM55.542 0.909712V0.373582H55.0059V0.909712H55.542ZM59.0421 0.909712V20H60.1143V0.909712H59.0421ZM59.5782 19.4639H55.542V20.5361H59.5782V19.4639ZM56.0781 20V0.909712H55.0059V20H56.0781ZM55.542 1.44584H59.5782V0.373582H55.542V1.44584ZM62.1719 4.23746H61.6358V4.77359H62.1719V4.23746ZM62.1719 0.909712V0.373582H61.6358V0.909712H62.1719ZM77.8505 0.909712H78.3867V0.373582H77.8505V0.909712ZM77.8505 4.23746V4.77359H78.3867V4.23746H77.8505ZM72.006 4.23746V3.70133H71.4699V4.23746H72.006ZM72.006 20V20.5361H72.5421V20H72.006ZM68.0164 20H67.4803V20.5361H68.0164V20ZM68.0164 4.23746H68.5525V3.70133H68.0164V4.23746ZM62.708 4.23746V0.909712H61.6358V4.23746H62.708ZM62.1719 1.44584H77.8505V0.373582H62.1719V1.44584ZM77.3144 0.909712V4.23746H78.3867V0.909712H77.3144ZM77.8505 3.70133H72.006V4.77359H77.8505V3.70133ZM71.4699 4.23746V20H72.5421V4.23746H71.4699ZM72.006 19.4639H68.0164V20.5361H72.006V19.4639ZM68.5525 20V4.23746H67.4803V20H68.5525ZM68.0164 3.70133H62.1719V4.77359H68.0164V3.70133ZM81.3903 20V20.5361H81.7797L81.9002 20.1659L81.3903 20ZM77.0652 20L76.5584 19.8251L76.3129 20.5361H77.0652V20ZM83.6554 0.909712V0.373582H83.2733L83.1487 0.734763L83.6554 0.909712ZM88.8568 0.909712L89.3637 0.734984L89.2391 0.373582H88.8568V0.909712ZM95.4377 20V20.5361H96.1896L95.9446 19.8253L95.4377 20ZM91.1126 20L90.6027 20.1656L90.723 20.5361H91.1126V20ZM86.3307 5.27214L86.8406 5.10658L86.7203 4.73601H86.3307V5.27214ZM86.1816 5.27214V4.73601H85.7922L85.6717 5.10628L86.1816 5.27214ZM81.12 12.4962V11.9601H80.5839V12.4962H81.12ZM91.3363 12.4962H91.8724V11.9601H91.3363V12.4962ZM91.3363 15.6469V16.183H91.8724V15.6469H91.3363ZM81.12 15.6469H80.5839V16.183H81.12V15.6469ZM81.3903 19.4639H77.0652V20.5361H81.3903V19.4639ZM77.572 20.1749L84.1622 1.08466L83.1487 0.734763L76.5584 19.8251L77.572 20.1749ZM83.6554 1.44584H88.8568V0.373582H83.6554V1.44584ZM88.3499 1.08444L94.9309 20.1747L95.9446 19.8253L89.3637 0.734984L88.3499 1.08444ZM95.4377 19.4639H91.1126V20.5361H95.4377V19.4639ZM91.6225 19.8344L86.8406 5.10658L85.8208 5.43771L90.6027 20.1656L91.6225 19.8344ZM86.3307 4.73601H86.1816V5.80827H86.3307V4.73601ZM85.6717 5.10628L80.8805 19.8341L81.9002 20.1659L86.6914 5.438L85.6717 5.10628ZM81.12 13.0324H91.3363V11.9601H81.12V13.0324ZM90.8002 12.4962V15.6469H91.8724V12.4962H90.8002ZM91.3363 15.1108H81.12V16.183H91.3363V15.1108ZM81.6561 15.6469V12.4962H80.5839V15.6469H81.6561ZM109.497 7.0805L108.982 7.22872L109.093 7.61663H109.497V7.0805ZM108.947 5.87803L108.501 6.17543L108.503 6.17907L108.947 5.87803ZM108.08 4.98318L107.761 5.41408L107.77 5.42052L108.08 4.98318ZM106.924 4.41457L106.768 4.92747L106.77 4.92809L106.924 4.41457ZM102.925 4.94589L102.631 4.49749L102.63 4.49864L102.925 4.94589ZM101.21 7.06186L101.7 7.28021L101.7 7.27899L101.21 7.06186ZM102.916 15.9638L102.619 16.4105L102.622 16.4122L102.916 15.9638ZM107.875 16.2062L108.115 16.6857L108.116 16.6848L107.875 16.2062ZM109.366 14.8173L108.903 14.5471L108.901 14.5508L109.366 14.8173ZM109.888 12.7013L109.967 12.1709L109.352 12.0802V12.7013H109.888ZM110.709 12.8225V13.3586L110.787 12.2921L110.709 12.8225ZM105.787 12.8225H105.251V13.3586H105.787V12.8225ZM105.787 9.78371V9.24758H105.251V9.78371H105.787ZM113.775 9.78371H114.311V9.24758H113.775V9.78371ZM112.713 16.5138L113.174 16.7865L113.175 16.7854L112.713 16.5138ZM109.786 19.2916L110.033 19.7672L110.035 19.7663L109.786 19.2916ZM100.8 19.0772L100.528 19.5395L100.53 19.5404L100.8 19.0772ZM97.6306 15.6935L97.1535 15.9381L97.1548 15.9405L97.6306 15.6935ZM97.1738 6.33478L96.6714 6.14766L96.6709 6.14908L97.1738 6.33478ZM99.0754 3.24007L99.4616 3.61201L99.4616 3.61201L99.0754 3.24007ZM101.918 1.31053L101.716 0.814138L101.716 0.814138L101.918 1.31053ZM108.453 1.1241L108.28 1.63171L108.283 1.63272L108.453 1.1241ZM110.932 2.44775L110.599 2.86781L110.601 2.86919L110.932 2.44775ZM112.713 4.48914L112.249 4.75905L112.25 4.76065L112.713 4.48914ZM113.598 7.0805V7.61663H114.213L114.129 7.00713L113.598 7.0805ZM110.012 6.93228C109.868 6.43082 109.662 5.97718 109.39 5.577L108.503 6.17907C108.704 6.47488 108.865 6.82289 108.982 7.22872L110.012 6.93228ZM109.393 5.58064C109.121 5.17275 108.786 4.82675 108.39 4.54584L107.77 5.42052C108.057 5.62432 108.3 5.87489 108.501 6.17542L109.393 5.58064ZM108.399 4.55237C108.009 4.26379 107.567 4.04781 107.078 3.90105L106.77 4.92809C107.151 5.04233 107.479 5.20542 107.761 5.41399L108.399 4.55237ZM107.08 3.90167C106.593 3.75348 106.064 3.68269 105.498 3.68269V4.75495C105.975 4.75495 106.397 4.81466 106.768 4.92747L107.08 3.90167ZM105.498 3.68269C104.429 3.68269 103.467 3.94969 102.631 4.4975L103.219 5.39428C103.862 4.97267 104.615 4.75495 105.498 4.75495V3.68269ZM102.63 4.49864C101.798 5.04808 101.165 5.83966 100.72 6.84472L101.7 7.27899C102.075 6.4322 102.585 5.81313 103.221 5.39314L102.63 4.49864ZM100.72 6.8435C100.271 7.8502 100.059 9.05408 100.059 10.4362H101.131C101.131 9.15863 101.328 8.11294 101.7 7.28021L100.72 6.8435ZM100.059 10.4362C100.059 11.8178 100.268 13.0256 100.709 14.0424L101.693 13.616C101.325 12.7685 101.131 11.7143 101.131 10.4362H100.059ZM100.709 14.0424C101.148 15.0555 101.782 15.8543 102.619 16.4105L103.212 15.5172C102.571 15.0915 102.061 14.4672 101.693 13.616L100.709 14.0424ZM102.622 16.4122C103.46 16.9618 104.439 17.227 105.535 17.227V16.1548C104.618 16.1548 103.85 15.9352 103.21 15.5154L102.622 16.4122ZM105.535 17.227C106.51 17.227 107.377 17.0546 108.115 16.6857L107.635 15.7266C107.08 16.0041 106.387 16.1548 105.535 16.1548V17.227ZM108.116 16.6848C108.856 16.3113 109.434 15.7773 109.831 15.0838L108.901 14.5508C108.615 15.0504 108.198 15.4424 107.633 15.7276L108.116 16.6848ZM109.829 15.0874C110.233 14.3953 110.424 13.5932 110.424 12.7013H109.352C109.352 13.4376 109.195 14.0462 108.903 14.5471L109.829 15.0874ZM109.81 13.2317L110.63 13.3529L110.787 12.2921L109.967 12.1709L109.81 13.2317ZM110.709 12.2864H105.787V13.3586H110.709V12.2864ZM106.323 12.8225V9.78371H105.251V12.8225H106.323ZM105.787 10.3198H113.775V9.24758H105.787V10.3198ZM113.239 9.78371V12.1886H114.311V9.78371H113.239ZM113.239 12.1886C113.239 13.7901 112.902 15.134 112.25 16.2422L113.175 16.7854C113.941 15.4824 114.311 13.9429 114.311 12.1886H113.239ZM112.251 16.2411C111.594 17.354 110.692 18.2103 109.537 18.8169L110.035 19.7663C111.365 19.0678 112.415 18.0723 113.174 16.7864L112.251 16.2411ZM109.538 18.8159C108.382 19.4171 107.046 19.7249 105.517 19.7249V20.7971C107.193 20.7971 108.703 20.4586 110.033 19.7672L109.538 18.8159ZM105.517 19.7249C103.808 19.7249 102.332 19.349 101.07 18.6139L100.53 19.5404C101.978 20.3838 103.646 20.7971 105.517 20.7971V19.7249ZM101.071 18.6149C99.8079 17.873 98.8204 16.8217 98.1064 15.4465L97.1548 15.9405C97.9571 17.486 99.0825 18.6905 100.528 19.5395L101.071 18.6149ZM98.1077 15.4489C97.4022 14.073 97.0388 12.4205 97.0388 10.4735H95.9666C95.9666 12.5534 96.3551 14.3809 97.1535 15.9381L98.1077 15.4489ZM97.0388 10.4735C97.0388 8.97731 97.2552 7.66235 97.6768 6.52048L96.6709 6.14908C96.1977 7.43079 95.9666 8.87497 95.9666 10.4735H97.0388ZM97.6763 6.52191C98.107 5.36538 98.7038 4.39873 99.4616 3.61201L98.6893 2.86813C97.8189 3.77169 97.148 4.86818 96.6714 6.14766L97.6763 6.52191ZM99.4616 3.61201C100.224 2.82042 101.109 2.21977 102.121 1.80693L101.716 0.814138C100.565 1.28373 99.555 1.96943 98.6893 2.86813L99.4616 3.61201ZM102.121 1.80693C103.133 1.39399 104.235 1.18484 105.433 1.18484V0.112582C104.107 0.112582 102.866 0.344643 101.716 0.814138L102.121 1.80693ZM105.433 1.18484C106.461 1.18484 107.409 1.33543 108.28 1.6317L108.625 0.616512C107.632 0.278924 106.567 0.112582 105.433 0.112582V1.18484ZM108.283 1.63272C109.16 1.92503 109.93 2.33749 110.599 2.8678L111.265 2.02769C110.492 1.41458 109.61 0.944612 108.622 0.615488L108.283 1.63272ZM110.601 2.86919C111.276 3.39969 111.824 4.02895 112.249 4.75905L113.176 4.21923C112.682 3.3709 112.043 2.63923 111.264 2.0263L110.601 2.86919ZM112.25 4.76065C112.673 5.47975 112.946 6.27567 113.067 7.15387L114.129 7.00713C113.99 5.99619 113.672 5.06453 113.175 4.21763L112.25 4.76065ZM113.598 6.54437H109.497V7.61663H113.598V6.54437ZM116.807 20H116.271V20.5361H116.807V20ZM116.807 0.909712V0.373582H116.271V0.909712H116.807ZM129.671 0.909712H130.207V0.373582H129.671V0.909712ZM129.671 4.23746V4.77359H130.207V4.23746H129.671ZM120.843 4.23746V3.70133H120.307V4.23746H120.843ZM120.843 8.78632H120.307V9.32245H120.843V8.78632ZM129.009 8.78632H129.545V8.25019H129.009V8.78632ZM129.009 12.1141V12.6502H129.545V12.1141H129.009ZM120.843 12.1141V11.5779H120.307V12.1141H120.843ZM120.843 16.6722H120.307V17.2084H120.843V16.6722ZM129.708 16.6722H130.244V16.1361H129.708V16.6722ZM129.708 20V20.5361H130.244V20H129.708ZM117.343 20V0.909712H116.271V20H117.343ZM116.807 1.44584H129.671V0.373582H116.807V1.44584ZM129.135 0.909712V4.23746H130.207V0.909712H129.135ZM129.671 3.70133H120.843V4.77359H129.671V3.70133ZM120.307 4.23746V8.78632H121.379V4.23746H120.307ZM120.843 9.32245H129.009V8.25019H120.843V9.32245ZM128.473 8.78632V12.1141H129.545V8.78632H128.473ZM129.009 11.5779H120.843V12.6502H129.009V11.5779ZM120.307 12.1141V16.6722H121.379V12.1141H120.307ZM120.843 17.2084H129.708V16.1361H120.843V17.2084ZM129.172 16.6722V20H130.244V16.6722H129.172ZM129.708 19.4639H116.807V20.5361H129.708V19.4639ZM15.3177 39.0805L14.8025 39.2287L14.9141 39.6166H15.3177V39.0805ZM14.7678 37.878L14.3217 38.1754L14.3241 38.1791L14.7678 37.878ZM13.9009 36.9832L13.5817 37.4141L13.5907 37.4205L13.9009 36.9832ZM12.745 36.4146L12.5889 36.9275L12.5909 36.9281L12.745 36.4146ZM8.74611 36.9459L8.4522 36.4975L8.45047 36.4986L8.74611 36.9459ZM7.03097 39.0619L7.52061 39.2802L7.52116 39.279L7.03097 39.0619ZM8.73679 47.9638L8.44026 48.4105L8.44288 48.4122L8.73679 47.9638ZM13.6958 48.2062L13.9356 48.6857L13.9374 48.6848L13.6958 48.2062ZM15.1872 46.8173L14.7241 46.5471L14.722 46.5508L15.1872 46.8173ZM15.7092 44.7013L15.7876 44.1709L15.1731 44.0802V44.7013H15.7092ZM16.5295 44.8225V45.3586L16.6079 44.2921L16.5295 44.8225ZM11.6078 44.8225H11.0717V45.3586H11.6078V44.8225ZM11.6078 41.7837V41.2476H11.0717V41.7837H11.6078ZM19.5963 41.7837H20.1324V41.2476H19.5963V41.7837ZM18.5336 48.5138L18.9952 48.7865L18.9958 48.7854L18.5336 48.5138ZM15.6067 51.2916L15.854 51.7672L15.8559 51.7663L15.6067 51.2916ZM6.62082 51.0772L6.34936 51.5395L6.35095 51.5404L6.62082 51.0772ZM3.45154 47.6935L2.97445 47.9381L2.97571 47.9405L3.45154 47.6935ZM2.99479 38.3348L2.49237 38.1477L2.49184 38.1491L2.99479 38.3348ZM4.89636 35.2401L5.28249 35.612L5.28249 35.612L4.89636 35.2401ZM7.73939 33.3105L7.53684 32.8141L7.53684 32.8141L7.73939 33.3105ZM14.2737 33.1241L14.1011 33.6317L14.1042 33.6327L14.2737 33.1241ZM16.7532 34.4477L16.4201 34.8678L16.4218 34.8692L16.7532 34.4477ZM18.5336 36.4891L18.0704 36.7591L18.0713 36.7606L18.5336 36.4891ZM19.4191 39.0805V39.6166H20.0344L19.9502 39.0071L19.4191 39.0805ZM15.833 38.9323C15.6887 38.4308 15.4829 37.9772 15.2114 37.577L14.3241 38.1791C14.5248 38.4749 14.6857 38.8229 14.8025 39.2287L15.833 38.9323ZM15.2138 37.5806C14.9419 37.1727 14.6071 36.8268 14.211 36.5458L13.5907 37.4205C13.8782 37.6243 14.1213 37.8749 14.3217 38.1754L15.2138 37.5806ZM14.22 36.5524C13.8304 36.2638 13.3882 36.0478 12.8991 35.9011L12.5909 36.9281C12.9718 37.0423 13.3002 37.2054 13.5817 37.414L14.22 36.5524ZM12.9011 35.9017C12.4142 35.7535 11.8852 35.6827 11.3188 35.6827V36.7549C11.7964 36.7549 12.2182 36.8147 12.5889 36.9275L12.9011 35.9017ZM11.3188 35.6827C10.25 35.6827 9.28797 35.9497 8.4522 36.4975L9.04001 37.3943C9.68325 36.9727 10.4364 36.7549 11.3188 36.7549V35.6827ZM8.45047 36.4986C7.61926 37.0481 6.98597 37.8397 6.54077 38.8447L7.52116 39.279C7.89625 38.4322 8.40638 37.8131 9.04175 37.3931L8.45047 36.4986ZM6.54132 38.8435C6.09238 39.8502 5.87962 41.0541 5.87962 42.4362H6.95188C6.95188 41.1586 7.14926 40.1129 7.52061 39.2802L6.54132 38.8435ZM5.87962 42.4362C5.87962 43.8178 6.08912 45.0256 6.52972 46.0424L7.51357 45.616C7.14631 44.7685 6.95188 43.7143 6.95188 42.4362H5.87962ZM6.52972 46.0424C6.96873 47.0555 7.60246 47.8543 8.44026 48.4105L9.03331 47.5172C8.39212 47.0915 7.88241 46.4672 7.51357 45.616L6.52972 46.0424ZM8.44288 48.4122C9.28139 48.9618 10.2599 49.227 11.3561 49.227V48.1548C10.4389 48.1548 9.67118 47.9352 9.03069 47.5154L8.44288 48.4122ZM11.3561 49.227C12.3314 49.227 13.1978 49.0546 13.9356 48.6857L13.456 47.7266C12.9012 48.0041 12.2078 48.1548 11.3561 48.1548V49.227ZM13.9374 48.6848C14.6774 48.3113 15.2551 47.7773 15.6524 47.0838L14.722 46.5508C14.4358 47.0504 14.0192 47.4424 13.4542 47.7276L13.9374 48.6848ZM15.6503 47.0874C16.0541 46.3953 16.2453 45.5932 16.2453 44.7013H15.1731C15.1731 45.4376 15.0164 46.0462 14.7241 46.5471L15.6503 47.0874ZM15.6309 45.2317L16.4512 45.3529L16.6079 44.2921L15.7876 44.1709L15.6309 45.2317ZM16.5295 44.2864H11.6078V45.3586H16.5295V44.2864ZM12.1439 44.8225V41.7837H11.0717V44.8225H12.1439ZM11.6078 42.3198H19.5963V41.2476H11.6078V42.3198ZM19.0601 41.7837V44.1886H20.1324V41.7837H19.0601ZM19.0601 44.1886C19.0601 45.7901 18.7226 47.134 18.0714 48.2422L18.9958 48.7854C19.7615 47.4824 20.1324 45.9429 20.1324 44.1886H19.0601ZM18.072 48.2411C17.4146 49.354 16.5129 50.2103 15.3575 50.8169L15.8559 51.7663C17.1862 51.0678 18.2357 50.0723 18.9952 48.7864L18.072 48.2411ZM15.3593 50.8159C14.2033 51.4171 12.8672 51.7249 11.3375 51.7249V52.7971C13.0143 52.7971 14.5244 52.4586 15.854 51.7672L15.3593 50.8159ZM11.3375 51.7249C9.62892 51.7249 8.15244 51.349 6.8907 50.6139L6.35095 51.5404C7.79863 52.3838 9.46658 52.7971 11.3375 52.7971V51.7249ZM6.89228 50.6149C5.62882 49.873 4.64132 48.8217 3.92736 47.4465L2.97571 47.9405C3.77804 49.486 4.90339 50.6905 6.34936 51.5395L6.89228 50.6149ZM3.92861 47.4489C3.22317 46.073 2.85977 44.4205 2.85977 42.4735H1.78751C1.78751 44.5534 2.17604 46.3809 2.97446 47.9381L3.92861 47.4489ZM2.85977 42.4735C2.85977 40.9773 3.07611 39.6624 3.49773 38.5205L2.49184 38.1491C2.0186 39.4308 1.78751 40.875 1.78751 42.4735H2.85977ZM3.4972 38.5219C3.92795 37.3654 4.52469 36.3987 5.28249 35.612L4.51023 34.8681C3.63988 35.7717 2.96891 36.8682 2.49237 38.1477L3.4972 38.5219ZM5.28249 35.612C6.04497 34.8204 6.9302 34.2198 7.94195 33.8069L7.53684 32.8141C6.38601 33.2837 5.37589 33.9694 4.51023 34.8681L5.28249 35.612ZM7.94195 33.8069C8.95392 33.394 10.0559 33.1848 11.2536 33.1848V32.1126C9.92823 32.1126 8.68744 32.3446 7.53684 32.8141L7.94195 33.8069ZM11.2536 33.1848C12.2819 33.1848 13.2298 33.3354 14.1011 33.6317L14.4463 32.6165C13.4534 32.2789 12.3878 32.1126 11.2536 32.1126V33.1848ZM14.1042 33.6327C14.9811 33.925 15.7514 34.3375 16.4201 34.8678L17.0864 34.0277C16.3133 33.4146 15.4306 32.9446 14.4433 32.6155L14.1042 33.6327ZM16.4218 34.8692C17.0965 35.3997 17.645 36.029 18.0704 36.7591L18.9968 36.2192C18.5025 35.3709 17.8641 34.6392 17.0846 34.0263L16.4218 34.8692ZM18.0713 36.7606C18.4936 37.4798 18.7667 38.2757 18.8881 39.1539L19.9502 39.0071C19.8106 37.9962 19.4933 37.0645 18.9959 36.2176L18.0713 36.7606ZM19.4191 38.5444H15.3177V39.6166H19.4191V38.5444ZM22.628 52H22.0919V52.5361H22.628V52ZM22.628 32.9097V32.3736H22.0919V32.9097H22.628ZM33.851 33.6834L33.6089 34.1618L33.6124 34.1635L33.851 33.6834ZM36.1907 35.8553L35.7248 36.1206L35.727 36.1243L36.1907 35.8553ZM36.1814 42.4176L36.6406 42.6943L36.6414 42.6929L36.1814 42.4176ZM33.8044 44.5056L33.5776 44.0198L33.5764 44.0203L33.8044 44.5056ZM25.0143 45.2326H24.4782V45.7688H25.0143V45.2326ZM25.0143 41.9888V41.4527H24.4782V41.9888H25.0143ZM31.3249 41.6719L31.5303 42.1671L31.5303 42.1671L31.3249 41.6719ZM32.4622 40.7211L32.003 40.4442L32 40.4492L32.4622 40.7211ZM32.4622 37.5425L31.9966 37.8085L31.9995 37.8134L32.4622 37.5425ZM31.3156 36.5544L31.0951 37.0431L31.1023 37.0462L31.3156 36.5544ZM26.6642 36.2095V35.6734H26.1281V36.2095H26.6642ZM26.6642 52V52.5361H27.2004V52H26.6642ZM32.9375 43.3124L33.4081 43.0555L33.2556 42.7763H32.9375V43.3124ZM37.6822 52V52.5361H38.5858L38.1527 51.743L37.6822 52ZM33.2265 52L32.7537 52.2527L32.9051 52.5361H33.2265V52ZM28.5844 43.3124V42.7763H27.6901L28.1116 43.5651L28.5844 43.3124ZM23.1642 52V32.9097H22.0919V52H23.1642ZM22.628 33.4458H30.1598V32.3736H22.628V33.4458ZM30.1598 33.4458C31.5389 33.4458 32.6819 33.6926 33.609 34.1617L34.0931 33.205C32.9819 32.6426 31.6641 32.3736 30.1598 32.3736V33.4458ZM33.6124 34.1635C34.5484 34.6287 35.2464 35.2806 35.7249 36.1206L36.6566 35.59C36.0662 34.5533 35.2044 33.7573 34.0896 33.2033L33.6124 34.1635ZM35.727 36.1243C36.2127 36.9617 36.4656 37.9624 36.4656 39.1457H37.5378C37.5378 37.806 37.2501 36.6132 36.6545 35.5863L35.727 36.1243ZM36.4656 39.1457C36.4656 40.3351 36.2097 41.3266 35.7214 42.1422L36.6414 42.6929C37.2468 41.6816 37.5378 40.4918 37.5378 39.1457H36.4656ZM35.7222 42.1408C35.2348 42.9494 34.5271 43.5763 33.5776 44.0198L34.0313 44.9913C35.1574 44.4654 36.0343 43.7003 36.6406 42.6943L35.7222 42.1408ZM33.5764 44.0203C32.6336 44.4634 31.4668 44.6965 30.0572 44.6965V45.7688C31.5808 45.7688 32.9122 45.5172 34.0324 44.9908L33.5764 44.0203ZM30.0572 44.6965H25.0143V45.7688H30.0572V44.6965ZM25.5505 45.2326V41.9888H24.4782V45.2326H25.5505ZM25.0143 42.5249H29.4047V41.4527H25.0143V42.5249ZM29.4047 42.5249C30.2198 42.5249 30.9353 42.4138 31.5303 42.1671L31.1196 41.1766C30.6955 41.3525 30.1308 41.4527 29.4047 41.4527V42.5249ZM31.5303 42.1671C32.1333 41.9171 32.6093 41.5283 32.9243 40.9929L32 40.4492C31.8178 40.759 31.5357 41.0041 31.1196 41.1766L31.5303 42.1671ZM32.9213 40.9979C33.2384 40.4719 33.3805 39.8448 33.3805 39.1457H32.3082C32.3082 39.702 32.1954 40.1251 32.003 40.4442L32.9213 40.9979ZM33.3805 39.1457C33.3805 38.4408 33.2386 37.8073 32.9248 37.2715L31.9995 37.8134C32.1953 38.1476 32.3082 38.5829 32.3082 39.1457H33.3805ZM32.9276 37.2765C32.6147 36.7288 32.1374 36.3264 31.529 36.0625L31.1023 37.0462C31.5254 37.2298 31.8125 37.4862 31.9967 37.8085L32.9276 37.2765ZM31.5361 36.0657C30.9358 35.7948 30.2112 35.6734 29.3861 35.6734V36.7456C30.1146 36.7456 30.6763 36.8541 31.0951 37.0431L31.5361 36.0657ZM29.3861 35.6734H26.6642V36.7456H29.3861V35.6734ZM26.1281 36.2095V52H27.2004V36.2095H26.1281ZM26.6642 51.4639H22.628V52.5361H26.6642V51.4639ZM32.467 43.5694L37.2116 52.257L38.1527 51.743L33.4081 43.0555L32.467 43.5694ZM37.6822 51.4639H33.2265V52.5361H37.6822V51.4639ZM33.6994 51.7473L29.0573 43.0598L28.1116 43.5651L32.7537 52.2527L33.6994 51.7473ZM28.5844 43.8486H32.9375V42.7763H28.5844V43.8486ZM43.1445 52V52.5361H43.5339L43.6543 52.1659L43.1445 52ZM38.8194 52L38.3126 51.8251L38.0671 52.5361H38.8194V52ZM45.4096 32.9097V32.3736H45.0275L44.9028 32.7348L45.4096 32.9097ZM50.611 32.9097L51.1178 32.735L50.9932 32.3736H50.611V32.9097ZM57.1919 52V52.5361H57.9438L57.6988 51.8253L57.1919 52ZM52.8668 52L52.3568 52.1656L52.4772 52.5361H52.8668V52ZM48.0849 37.2721L48.5948 37.1066L48.4745 36.736H48.0849V37.2721ZM47.9357 37.2721V36.736H47.5464L47.4259 37.1063L47.9357 37.2721ZM42.8742 44.4962V43.9601H42.3381V44.4962H42.8742ZM53.0905 44.4962H53.6266V43.9601H53.0905V44.4962ZM53.0905 47.6469V48.183H53.6266V47.6469H53.0905ZM42.8742 47.6469H42.3381V48.183H42.8742V47.6469ZM43.1445 51.4639H38.8194V52.5361H43.1445V51.4639ZM39.3261 52.1749L45.9164 33.0847L44.9028 32.7348L38.3126 51.8251L39.3261 52.1749ZM45.4096 33.4458H50.611V32.3736H45.4096V33.4458ZM50.1041 33.0844L56.685 52.1747L57.6988 51.8253L51.1178 32.735L50.1041 33.0844ZM57.1919 51.4639H52.8668V52.5361H57.1919V51.4639ZM53.3767 51.8344L48.5948 37.1066L47.5749 37.4377L52.3568 52.1656L53.3767 51.8344ZM48.0849 36.736H47.9357V37.8083H48.0849V36.736ZM47.4259 37.1063L42.6347 51.8341L43.6543 52.1659L48.4456 37.438L47.4259 37.1063ZM42.8742 45.0324H53.0905V43.9601H42.8742V45.0324ZM52.5543 44.4962V47.6469H53.6266V44.4962H52.5543ZM53.0905 47.1108H42.8742V48.183H53.0905V47.1108ZM43.4103 47.6469V44.4962H42.3381V47.6469H43.4103ZM59.4896 52H58.9535V52.5361H59.4896V52ZM59.4896 32.9097V32.3736H58.9535V32.9097H59.4896ZM70.722 33.7393L70.4662 34.2105L70.4685 34.2117L70.722 33.7393ZM73.0523 36.0231L72.5821 36.2806L72.5841 36.2842L73.0523 36.0231ZM70.666 44.9996L70.4183 44.5241L70.4172 44.5247L70.666 44.9996ZM62.1183 45.8106H61.5822V46.3467H62.1183V45.8106ZM62.1183 42.576V42.0399H61.5822V42.576H62.1183ZM68.1865 42.1752L68.4379 42.6488L68.44 42.6476L68.1865 42.1752ZM69.3237 41.0473L68.8492 40.7979L68.848 40.8002L69.3237 41.0473ZM69.3237 37.7196L68.8479 37.9667L68.8519 37.9741L69.3237 37.7196ZM68.1865 36.6103L67.9375 37.0851L67.9421 37.0875L68.1865 36.6103ZM63.5258 36.2095V35.6734H62.9897V36.2095H63.5258ZM63.5258 52V52.5361H64.0619V52H63.5258ZM60.0258 52V32.9097H58.9535V52H60.0258ZM59.4896 33.4458H67.0214V32.3736H59.4896V33.4458ZM67.0214 33.4458C68.4018 33.4458 69.5428 33.7094 70.4662 34.2105L70.9777 33.2681C69.8629 32.6631 68.5368 32.3736 67.0214 32.3736V33.4458ZM70.4685 34.2117C71.3999 34.7115 72.0996 35.3998 72.5821 36.2806L73.5225 35.7655C72.9361 34.695 72.0823 33.8608 70.9755 33.2669L70.4685 34.2117ZM72.5841 36.2842C73.0742 37.163 73.3272 38.1893 73.3272 39.3788H74.3994C74.3994 38.0328 74.1117 36.822 73.5206 35.7619L72.5841 36.2842ZM73.3272 39.3788C73.3272 40.5672 73.0716 41.5927 72.576 42.4711L73.51 42.9979C74.1082 41.9375 74.3994 40.7258 74.3994 39.3788H73.3272ZM72.576 42.4711C72.0829 43.3453 71.369 44.0289 70.4183 44.5241L70.9137 45.4751C72.0386 44.8891 72.9094 44.0625 73.51 42.9979L72.576 42.4711ZM70.4172 44.5247C69.4797 45.016 68.3207 45.2744 66.9188 45.2744V46.3467C68.4501 46.3467 69.7892 46.0645 70.9149 45.4745L70.4172 44.5247ZM66.9188 45.2744H62.1183V46.3467H66.9188V45.2744ZM62.6544 45.8106V42.576H61.5822V45.8106H62.6544ZM62.1183 43.1122H66.2663V42.0399H62.1183V43.1122ZM66.2663 43.1122C67.1004 43.1122 67.8342 42.9693 68.4379 42.6488L67.9351 41.7017C67.5322 41.9156 66.9858 42.0399 66.2663 42.0399V43.1122ZM68.44 42.6476C69.0374 42.3271 69.4975 41.8758 69.7995 41.2945L68.848 40.8002C68.6528 41.1759 68.3548 41.4765 67.933 41.7028L68.44 42.6476ZM69.7983 41.2968C70.0991 40.7245 70.2421 40.0805 70.2421 39.3788H69.1698C69.1698 39.9323 69.058 40.4007 68.8492 40.7979L69.7983 41.2968ZM70.2421 39.3788C70.2421 38.6722 70.0996 38.0286 69.7956 37.465L68.8519 37.9741C69.0575 38.3551 69.1698 38.8177 69.1698 39.3788H70.2421ZM69.7995 37.4724C69.4963 36.8888 69.0332 36.4416 68.4309 36.1331L67.9421 37.0875C68.359 37.301 68.654 37.5933 68.848 37.9667L69.7995 37.4724ZM68.4355 36.1355C67.8265 35.8161 67.0876 35.6734 66.2477 35.6734V36.7456C66.9738 36.7456 67.5274 36.8701 67.9375 37.0851L68.4355 36.1355ZM66.2477 35.6734H63.5258V36.7456H66.2477V35.6734ZM62.9897 36.2095V52H64.0619V36.2095H62.9897ZM63.5258 51.4639H59.4896V52.5361H63.5258V51.4639ZM76.4849 52H75.9488V52.5361H76.4849V52ZM76.4849 32.9097V32.3736H75.9488V32.9097H76.4849ZM80.5211 32.9097H81.0572V32.3736H80.5211V32.9097ZM80.5211 40.7863H79.985V41.3224H80.5211V40.7863ZM88.7147 40.7863V41.3224H89.2508V40.7863H88.7147ZM88.7147 32.9097V32.3736H88.1785V32.9097H88.7147ZM92.7415 32.9097H93.2776V32.3736H92.7415V32.9097ZM92.7415 52V52.5361H93.2776V52H92.7415ZM88.7147 52H88.1785V52.5361H88.7147V52ZM88.7147 44.1141H89.2508V43.5779H88.7147V44.1141ZM80.5211 44.1141V43.5779H79.985V44.1141H80.5211ZM80.5211 52V52.5361H81.0572V52H80.5211ZM77.0211 52V32.9097H75.9488V52H77.0211ZM76.4849 33.4458H80.5211V32.3736H76.4849V33.4458ZM79.985 32.9097V40.7863H81.0572V32.9097H79.985ZM80.5211 41.3224H88.7147V40.2502H80.5211V41.3224ZM89.2508 40.7863V32.9097H88.1785V40.7863H89.2508ZM88.7147 33.4458H92.7415V32.3736H88.7147V33.4458ZM92.2054 32.9097V52H93.2776V32.9097H92.2054ZM92.7415 51.4639H88.7147V52.5361H92.7415V51.4639ZM89.2508 52V44.1141H88.1785V52H89.2508ZM88.7147 43.5779H80.5211V44.6502H88.7147V43.5779ZM79.985 44.1141V52H81.0572V44.1141H79.985ZM80.5211 51.4639H76.4849V52.5361H80.5211V51.4639Z" fill="black" mask="url(#path-1-outside-1_173_3)"/>
</g>
<defs>
<filter id="filter0_d_173_3" x="0.179701" y="0.648682" width="131.672" height="55.9013" filterUnits="userSpaceOnUse" color-interpolation-filters="sRGB">
<feFlood flood-opacity="0" result="BackgroundImageFix"/>
<feColorMatrix in="SourceAlpha" type="matrix" values="0 0 0 0 0 0 0 0 0 0 0 0 0 0 0 0 0 0 127 0" result="hardAlpha"/>
<feOffset dy="2.14452"/>
<feGaussianBlur stdDeviation="1.07226"/>
<feComposite in2="hardAlpha" operator="out"/>
<feColorMatrix type="matrix" values="0 0 0 0 0 0 0 0 0 0 0 0 0 0 0 0 0 0 0.25 0"/>
<feBlend mode="normal" in2="BackgroundImageFix" result="effect1_dropShadow_173_3"/>
<feBlend mode="normal" in="SourceGraphic" in2="effect1_dropShadow_173_3" result="shape"/>
</filter>
</defs>
</svg>
