<svg width="523" height="137" viewBox="0 0 523 137" fill="none" xmlns="http://www.w3.org/2000/svg">
<g filter="url(#filter0_d_49_23)">
<mask id="path-1-outside-1_49_23" maskUnits="userSpaceOnUse" x="7" y="25" width="509" height="96" fill="black">
<rect fill="white" x="7" y="25" width="509" height="96"/>
<path d="M83.086 29.1818V117H67.0489L28.8429 61.7277H28.1997V117H9.63264V29.1818H25.927L63.8329 84.4112H64.6048V29.1818H83.086ZM175.91 59.9268H157.129C156.786 57.4969 156.086 55.3386 155.028 53.4519C153.97 51.5366 152.612 49.9071 150.954 48.5636C149.296 47.22 147.381 46.1909 145.208 45.4762C143.064 44.7615 140.735 44.4042 138.219 44.4042C133.674 44.4042 129.714 45.5334 126.341 47.7917C122.968 50.0215 120.352 53.2804 118.494 57.5684C116.636 61.8278 115.707 67.0019 115.707 73.0909C115.707 79.3514 116.636 84.6113 118.494 88.8707C120.381 93.1301 123.011 96.3461 126.384 98.5187C129.757 100.691 133.659 101.778 138.09 101.778C140.577 101.778 142.879 101.449 144.994 100.791C147.138 100.134 149.039 99.1762 150.697 97.9184C152.355 96.632 153.727 95.074 154.814 93.2445C155.928 91.4149 156.7 89.3281 157.129 86.984L175.91 87.0698C175.424 91.1005 174.21 94.9883 172.266 98.7331C170.35 102.449 167.763 105.78 164.504 108.724C161.274 111.64 157.415 113.956 152.927 115.671C148.467 117.357 143.422 118.201 137.79 118.201C129.957 118.201 122.954 116.428 116.779 112.884C110.633 109.339 105.773 104.207 102.2 97.4896C98.655 90.7717 96.8827 82.6388 96.8827 73.0909C96.8827 63.5144 98.6836 55.3672 102.286 48.6493C105.887 41.9315 110.776 36.8144 116.95 33.2983C123.125 29.7535 130.072 27.9812 137.79 27.9812C142.879 27.9812 147.595 28.6958 151.941 30.1252C156.314 31.5545 160.188 33.6413 163.561 36.3856C166.934 39.1014 169.679 42.4317 171.794 46.3767C173.938 50.3216 175.31 54.8383 175.91 59.9268ZM189.225 117V29.1818H207.792V65.4154H245.483V29.1818H264.007V117H245.483V80.7235H207.792V117H189.225ZM279.316 117V29.1818H297.883V101.692H335.531V117H279.316ZM425.107 73.0909C425.107 82.6674 423.292 90.8146 419.662 97.5325C416.06 104.25 411.143 109.382 404.911 112.926C398.708 116.443 391.733 118.201 383.986 118.201C376.181 118.201 369.178 116.428 362.974 112.884C356.771 109.339 351.868 104.207 348.267 97.4896C344.665 90.7717 342.864 82.6388 342.864 73.0909C342.864 63.5144 344.665 55.3672 348.267 48.6493C351.868 41.9315 356.771 36.8144 362.974 33.2983C369.178 29.7535 376.181 27.9812 383.986 27.9812C391.733 27.9812 398.708 29.7535 404.911 33.2983C411.143 36.8144 416.06 41.9315 419.662 48.6493C423.292 55.3672 425.107 63.5144 425.107 73.0909ZM406.283 73.0909C406.283 66.8876 405.354 61.6562 403.496 57.3968C401.666 53.1374 399.079 49.9071 395.735 47.706C392.39 45.5048 388.474 44.4042 383.986 44.4042C379.497 44.4042 375.581 45.5048 372.236 47.706C368.892 49.9071 366.29 53.1374 364.432 57.3968C362.603 61.6562 361.688 66.8876 361.688 73.0909C361.688 79.2942 362.603 84.5256 364.432 88.785C366.29 93.0444 368.892 96.2747 372.236 98.4759C375.581 100.677 379.497 101.778 383.986 101.778C388.474 101.778 392.39 100.677 395.735 98.4759C399.079 96.2747 401.666 93.0444 403.496 88.785C405.354 84.5256 406.283 79.2942 406.283 73.0909ZM469.992 117H438.861V29.1818H470.249C479.083 29.1818 486.687 30.9399 493.061 34.456C499.436 37.9436 504.339 42.9606 507.769 49.5069C511.228 56.0533 512.958 63.886 512.958 73.0051C512.958 82.1529 511.228 90.0142 507.769 96.5891C504.339 103.164 499.408 108.21 492.976 111.726C486.572 115.242 478.911 117 469.992 117ZM457.428 101.092H469.22C474.709 101.092 479.326 100.12 483.07 98.1757C486.844 96.2032 489.674 93.1587 491.561 89.0423C493.476 84.8972 494.434 79.5515 494.434 73.0051C494.434 66.516 493.476 61.2132 491.561 57.0967C489.674 52.9802 486.858 49.95 483.113 48.0061C479.368 46.0622 474.752 45.0903 469.263 45.0903H457.428V101.092Z"/>
</mask>
<path d="M83.086 29.1818V117H67.0489L28.8429 61.7277H28.1997V117H9.63264V29.1818H25.927L63.8329 84.4112H64.6048V29.1818H83.086ZM175.91 59.9268H157.129C156.786 57.4969 156.086 55.3386 155.028 53.4519C153.97 51.5366 152.612 49.9071 150.954 48.5636C149.296 47.22 147.381 46.1909 145.208 45.4762C143.064 44.7615 140.735 44.4042 138.219 44.4042C133.674 44.4042 129.714 45.5334 126.341 47.7917C122.968 50.0215 120.352 53.2804 118.494 57.5684C116.636 61.8278 115.707 67.0019 115.707 73.0909C115.707 79.3514 116.636 84.6113 118.494 88.8707C120.381 93.1301 123.011 96.3461 126.384 98.5187C129.757 100.691 133.659 101.778 138.09 101.778C140.577 101.778 142.879 101.449 144.994 100.791C147.138 100.134 149.039 99.1762 150.697 97.9184C152.355 96.632 153.727 95.074 154.814 93.2445C155.928 91.4149 156.7 89.3281 157.129 86.984L175.91 87.0698C175.424 91.1005 174.21 94.9883 172.266 98.7331C170.35 102.449 167.763 105.78 164.504 108.724C161.274 111.64 157.415 113.956 152.927 115.671C148.467 117.357 143.422 118.201 137.79 118.201C129.957 118.201 122.954 116.428 116.779 112.884C110.633 109.339 105.773 104.207 102.2 97.4896C98.655 90.7717 96.8827 82.6388 96.8827 73.0909C96.8827 63.5144 98.6836 55.3672 102.286 48.6493C105.887 41.9315 110.776 36.8144 116.95 33.2983C123.125 29.7535 130.072 27.9812 137.79 27.9812C142.879 27.9812 147.595 28.6958 151.941 30.1252C156.314 31.5545 160.188 33.6413 163.561 36.3856C166.934 39.1014 169.679 42.4317 171.794 46.3767C173.938 50.3216 175.31 54.8383 175.91 59.9268ZM189.225 117V29.1818H207.792V65.4154H245.483V29.1818H264.007V117H245.483V80.7235H207.792V117H189.225ZM279.316 117V29.1818H297.883V101.692H335.531V117H279.316ZM425.107 73.0909C425.107 82.6674 423.292 90.8146 419.662 97.5325C416.06 104.25 411.143 109.382 404.911 112.926C398.708 116.443 391.733 118.201 383.986 118.201C376.181 118.201 369.178 116.428 362.974 112.884C356.771 109.339 351.868 104.207 348.267 97.4896C344.665 90.7717 342.864 82.6388 342.864 73.0909C342.864 63.5144 344.665 55.3672 348.267 48.6493C351.868 41.9315 356.771 36.8144 362.974 33.2983C369.178 29.7535 376.181 27.9812 383.986 27.9812C391.733 27.9812 398.708 29.7535 404.911 33.2983C411.143 36.8144 416.06 41.9315 419.662 48.6493C423.292 55.3672 425.107 63.5144 425.107 73.0909ZM406.283 73.0909C406.283 66.8876 405.354 61.6562 403.496 57.3968C401.666 53.1374 399.079 49.9071 395.735 47.706C392.39 45.5048 388.474 44.4042 383.986 44.4042C379.497 44.4042 375.581 45.5048 372.236 47.706C368.892 49.9071 366.29 53.1374 364.432 57.3968C362.603 61.6562 361.688 66.8876 361.688 73.0909C361.688 79.2942 362.603 84.5256 364.432 88.785C366.29 93.0444 368.892 96.2747 372.236 98.4759C375.581 100.677 379.497 101.778 383.986 101.778C388.474 101.778 392.39 100.677 395.735 98.4759C399.079 96.2747 401.666 93.0444 403.496 88.785C405.354 84.5256 406.283 79.2942 406.283 73.0909ZM469.992 117H438.861V29.1818H470.249C479.083 29.1818 486.687 30.9399 493.061 34.456C499.436 37.9436 504.339 42.9606 507.769 49.5069C511.228 56.0533 512.958 63.886 512.958 73.0051C512.958 82.1529 511.228 90.0142 507.769 96.5891C504.339 103.164 499.408 108.21 492.976 111.726C486.572 115.242 478.911 117 469.992 117ZM457.428 101.092H469.22C474.709 101.092 479.326 100.12 483.07 98.1757C486.844 96.2032 489.674 93.1587 491.561 89.0423C493.476 84.8972 494.434 79.5515 494.434 73.0051C494.434 66.516 493.476 61.2132 491.561 57.0967C489.674 52.9802 486.858 49.95 483.113 48.0061C479.368 46.0622 474.752 45.0903 469.263 45.0903H457.428V101.092Z" fill="#1065B8"/>
<path d="M83.086 29.1818H85.3777V26.8901H83.086V29.1818ZM83.086 117V119.292H85.3777V117H83.086ZM67.0489 117L65.1638 118.303L65.8471 119.292H67.0489V117ZM28.8429 61.7277L30.728 60.4246L30.0447 59.436H28.8429V61.7277ZM28.1997 61.7277V59.436H25.908V61.7277H28.1997ZM28.1997 117V119.292H30.4913V117H28.1997ZM9.63264 117H7.34097V119.292H9.63264V117ZM9.63264 29.1818V26.8901H7.34097V29.1818H9.63264ZM25.927 29.1818L27.8165 27.885L27.1337 26.8901H25.927V29.1818ZM63.8329 84.4112L61.9435 85.708L62.6263 86.7029H63.8329V84.4112ZM64.6048 84.4112V86.7029H66.8964V84.4112H64.6048ZM64.6048 29.1818V26.8901H62.3131V29.1818H64.6048ZM80.7944 29.1818V117H85.3777V29.1818H80.7944ZM83.086 114.708H67.0489V119.292H83.086V114.708ZM68.9341 115.697L30.728 60.4246L26.9577 63.0308L65.1638 118.303L68.9341 115.697ZM28.8429 59.436H28.1997V64.0194H28.8429V59.436ZM25.908 61.7277V117H30.4913V61.7277H25.908ZM28.1997 114.708H9.63264V119.292H28.1997V114.708ZM11.9243 117V29.1818H7.34097V117H11.9243ZM9.63264 31.4735H25.927V26.8901H9.63264V31.4735ZM24.0376 30.4786L61.9435 85.708L65.7224 83.1144L27.8165 27.885L24.0376 30.4786ZM63.8329 86.7029H64.6048V82.1196H63.8329V86.7029ZM66.8964 84.4112V29.1818H62.3131V84.4112H66.8964ZM64.6048 31.4735H83.086V26.8901H64.6048V31.4735ZM175.91 59.9268V62.2184H178.488L178.186 59.6583L175.91 59.9268ZM157.129 59.9268L154.86 60.2471L155.138 62.2184H157.129V59.9268ZM155.028 53.4519L153.022 54.5597L153.025 54.5661L153.029 54.5725L155.028 53.4519ZM150.954 48.5636L149.512 50.344V50.344L150.954 48.5636ZM145.208 45.4762L144.484 47.6503L144.492 47.6531L145.208 45.4762ZM126.341 47.7917L127.605 49.7035L127.616 49.696L126.341 47.7917ZM118.494 57.5684L120.595 58.4847L120.597 58.4795L118.494 57.5684ZM118.494 88.8707L116.394 89.7871L116.399 89.7989L118.494 88.8707ZM126.384 98.5187L125.143 100.445L126.384 98.5187ZM144.994 100.791L144.322 98.6004L144.314 98.603L144.994 100.791ZM150.697 97.9184L152.082 99.7442L152.092 99.7366L152.102 99.729L150.697 97.9184ZM154.814 93.2445L152.857 92.052L152.85 92.0632L152.843 92.0745L154.814 93.2445ZM157.129 86.984L157.139 84.6924L155.22 84.6836L154.875 86.5717L157.129 86.984ZM175.91 87.0698L178.186 87.3441L178.494 84.7899L175.921 84.7781L175.91 87.0698ZM172.266 98.7331L170.232 97.6773L170.229 97.6833L172.266 98.7331ZM164.504 108.724L166.04 110.425L166.041 110.425L164.504 108.724ZM152.927 115.671L153.737 117.814L153.745 117.811L152.927 115.671ZM116.779 112.884L115.634 114.869L115.638 114.871L116.779 112.884ZM102.2 97.4896L100.173 98.5591L100.177 98.5658L102.2 97.4896ZM102.286 48.6493L104.305 49.7322H104.305L102.286 48.6493ZM116.95 33.2983L118.085 35.2897L118.091 35.2857L116.95 33.2983ZM151.941 30.1252L151.224 32.3021L151.229 32.3035L151.941 30.1252ZM163.561 36.3856L162.115 38.1633L162.124 38.1707L163.561 36.3856ZM171.794 46.3767L169.774 47.4597L169.78 47.471L171.794 46.3767ZM175.91 57.6351H157.129V62.2184H175.91V57.6351ZM159.398 59.6064C159.021 56.9329 158.241 54.4967 157.027 52.3312L153.029 54.5725C153.93 56.1805 154.551 58.0609 154.86 60.2471L159.398 59.6064ZM157.034 52.344C155.837 50.177 154.29 48.3172 152.397 46.7831L149.512 50.344C150.934 51.497 152.103 52.8961 153.022 54.5597L157.034 52.344ZM152.397 46.7831C150.508 45.2521 148.342 44.0946 145.924 43.2993L144.492 47.6531C146.42 48.2871 148.085 49.1878 149.512 50.344L152.397 46.7831ZM145.933 43.3021C143.531 42.5013 140.953 42.1125 138.219 42.1125V46.6959C140.516 46.6959 142.598 47.0218 144.484 47.6503L145.933 43.3021ZM138.219 42.1125C133.276 42.1125 128.861 43.3469 125.066 45.8874L127.616 49.696C130.568 47.7198 134.071 46.6959 138.219 46.6959V42.1125ZM125.078 45.88C121.278 48.3912 118.398 52.0264 116.391 56.6572L120.597 58.4795C122.307 54.5343 124.658 51.6518 127.605 49.7035L125.078 45.88ZM116.394 56.652C114.377 61.2752 113.415 66.7799 113.415 73.0909H117.999C117.999 67.224 118.895 62.3803 120.595 58.4847L116.394 56.652ZM113.415 73.0909C113.415 79.5633 114.374 85.1569 116.394 89.7871L120.595 87.9544C118.898 84.0658 117.999 79.1394 117.999 73.0909H113.415ZM116.399 89.7989C118.437 94.3999 121.336 97.9934 125.143 100.445L127.625 96.5921C124.686 94.6989 122.325 91.8604 120.589 87.9426L116.399 89.7989ZM125.143 100.445C128.925 102.881 133.267 104.069 138.09 104.069V99.4859C134.052 99.4859 130.59 98.5018 127.625 96.5921L125.143 100.445ZM138.09 104.069C140.78 104.069 143.313 103.714 145.674 102.98L144.314 98.603C142.444 99.1842 140.375 99.4859 138.09 99.4859V104.069ZM145.666 102.982C148.047 102.252 150.194 101.177 152.082 99.7442L149.312 96.0927C147.884 97.1756 146.229 98.0157 144.322 98.6004L145.666 102.982ZM152.102 99.729C153.99 98.264 155.553 96.4876 156.784 94.4145L152.843 92.0745C151.901 93.6604 150.72 95.0001 149.292 96.1078L152.102 99.729ZM156.77 94.437C158.047 92.3424 158.91 89.9856 159.383 87.3964L154.875 86.5717C154.491 88.6706 153.81 90.4875 152.857 92.052L156.77 94.437ZM157.119 89.2757L175.9 89.3614L175.921 84.7781L157.139 84.6924L157.119 89.2757ZM173.635 86.7955C173.183 90.5427 172.054 94.1667 170.232 97.6773L174.3 99.7889C176.365 95.8099 177.665 91.6583 178.186 87.3441L173.635 86.7955ZM170.229 97.6833C168.446 101.142 166.033 104.255 162.968 107.024L166.041 110.425C169.494 107.305 172.255 103.757 174.303 99.783L170.229 97.6833ZM162.969 107.023C159.969 109.731 156.36 111.905 152.109 113.53L153.745 117.811C158.47 116.006 162.579 113.549 166.04 110.425L162.969 107.023ZM152.116 113.527C147.958 115.1 143.194 115.909 137.79 115.909V120.492C143.65 120.492 148.977 119.615 153.737 117.814L152.116 113.527ZM137.79 115.909C130.317 115.909 123.713 114.222 117.92 110.896L115.638 114.871C122.194 118.635 129.598 120.492 137.79 120.492V115.909ZM117.924 110.898C112.177 107.584 107.61 102.781 104.223 96.4134L100.177 98.5658C103.936 105.634 109.089 111.094 115.634 114.869L117.924 110.898ZM104.227 96.4201C100.895 90.1059 99.1743 82.3599 99.1743 73.0909H94.591C94.591 82.9178 96.4152 91.4376 100.173 98.5591L104.227 96.4201ZM99.1743 73.0909C99.1743 63.7973 100.922 56.0424 104.305 49.7322L100.266 47.5664C96.4453 54.692 94.591 63.2315 94.591 73.0909H99.1743ZM104.305 49.7322C107.719 43.3657 112.312 38.5768 118.084 35.2897L115.816 31.3069C109.239 35.0521 104.056 40.4972 100.266 47.5664L104.305 49.7322ZM118.091 35.2857C123.89 31.9569 130.437 30.2728 137.79 30.2728V25.6895C129.706 25.6895 122.36 27.5502 115.81 31.3108L118.091 35.2857ZM137.79 30.2728C142.662 30.2728 147.135 30.9568 151.224 32.3021L152.657 27.9483C148.056 26.4349 143.095 25.6895 137.79 25.6895V30.2728ZM151.229 32.3035C155.351 33.6506 158.972 35.6066 162.115 38.1633L165.007 34.608C161.403 31.676 157.278 29.4584 152.652 27.9469L151.229 32.3035ZM162.124 38.1707C165.25 40.6873 167.799 43.7761 169.774 47.4597L173.814 45.2937C171.558 41.0874 168.619 37.5155 164.998 34.6006L162.124 38.1707ZM169.78 47.471C171.767 51.1263 173.064 55.3558 173.635 60.1953L178.186 59.6583C177.557 54.3209 176.109 49.517 173.807 45.2824L169.78 47.471ZM189.225 117H186.933V119.292H189.225V117ZM189.225 29.1818V26.8901H186.933V29.1818H189.225ZM207.792 29.1818H210.083V26.8901H207.792V29.1818ZM207.792 65.4154H205.5V67.7071H207.792V65.4154ZM245.483 65.4154V67.7071H247.775V65.4154H245.483ZM245.483 29.1818V26.8901H243.192V29.1818H245.483ZM264.007 29.1818H266.299V26.8901H264.007V29.1818ZM264.007 117V119.292H266.299V117H264.007ZM245.483 117H243.192V119.292H245.483V117ZM245.483 80.7235H247.775V78.4319H245.483V80.7235ZM207.792 80.7235V78.4319H205.5V80.7235H207.792ZM207.792 117V119.292H210.083V117H207.792ZM191.516 117V29.1818H186.933V117H191.516ZM189.225 31.4735H207.792V26.8901H189.225V31.4735ZM205.5 29.1818V65.4154H210.083V29.1818H205.5ZM207.792 67.7071H245.483V63.1237H207.792V67.7071ZM247.775 65.4154V29.1818H243.192V65.4154H247.775ZM245.483 31.4735H264.007V26.8901H245.483V31.4735ZM261.716 29.1818V117H266.299V29.1818H261.716ZM264.007 114.708H245.483V119.292H264.007V114.708ZM247.775 117V80.7235H243.192V117H247.775ZM245.483 78.4319H207.792V83.0152H245.483V78.4319ZM205.5 80.7235V117H210.083V80.7235H205.5ZM207.792 114.708H189.225V119.292H207.792V114.708ZM279.316 117H277.024V119.292H279.316V117ZM279.316 29.1818V26.8901H277.024V29.1818H279.316ZM297.883 29.1818H300.174V26.8901H297.883V29.1818ZM297.883 101.692H295.591V103.984H297.883V101.692ZM335.531 101.692H337.823V99.4002H335.531V101.692ZM335.531 117V119.292H337.823V117H335.531ZM281.607 117V29.1818H277.024V117H281.607ZM279.316 31.4735H297.883V26.8901H279.316V31.4735ZM295.591 29.1818V101.692H300.174V29.1818H295.591ZM297.883 103.984H335.531V99.4002H297.883V103.984ZM333.24 101.692V117H337.823V101.692H333.24ZM335.531 114.708H279.316V119.292H335.531V114.708ZM419.662 97.5325L417.646 96.4429L417.642 96.4496L419.662 97.5325ZM404.911 112.926L406.041 114.92L406.044 114.918L404.911 112.926ZM362.974 112.884L364.111 110.894L362.974 112.884ZM348.267 97.4896L346.247 98.5725L348.267 97.4896ZM348.267 48.6493L350.286 49.7322L348.267 48.6493ZM362.974 33.2983L364.104 35.292L364.111 35.288L362.974 33.2983ZM404.911 33.2983L403.774 35.288L403.785 35.2942L404.911 33.2983ZM419.662 48.6493L417.642 49.7322L417.646 49.7389L419.662 48.6493ZM403.496 57.3968L401.39 58.3013L401.395 58.3132L403.496 57.3968ZM395.735 47.706L394.475 49.6203L395.735 47.706ZM372.236 47.706L373.496 49.6203L372.236 47.706ZM364.432 57.3968L362.332 56.4805L362.327 56.4924L364.432 57.3968ZM364.432 88.785L362.327 89.6894L362.332 89.7013L364.432 88.785ZM372.236 98.4759L373.496 96.5616L372.236 98.4759ZM395.735 98.4759L394.475 96.5616L395.735 98.4759ZM403.496 88.785L401.395 87.8686L401.39 87.8805L403.496 88.785ZM422.816 73.0909C422.816 82.3819 421.055 90.1343 417.646 96.4429L421.678 98.622C425.529 91.4949 427.399 82.953 427.399 73.0909H422.816ZM417.642 96.4496C414.231 102.812 409.611 107.617 403.778 110.934L406.044 114.918C412.675 111.146 417.889 105.689 421.681 98.6154L417.642 96.4496ZM403.781 110.933C397.952 114.237 391.372 115.909 383.986 115.909V120.492C392.093 120.492 399.464 118.648 406.041 114.92L403.781 110.933ZM383.986 115.909C376.542 115.909 369.937 114.223 364.111 110.894L361.837 114.873C368.418 118.634 375.82 120.492 383.986 120.492V115.909ZM364.111 110.894C358.307 107.577 353.699 102.772 350.286 96.4067L346.247 98.5725C350.038 105.643 355.235 111.101 361.837 114.873L364.111 110.894ZM350.286 96.4067C346.902 90.0957 345.155 82.3546 345.155 73.0909H340.572C340.572 82.923 342.427 91.4478 346.247 98.5725L350.286 96.4067ZM345.155 73.0909C345.155 63.7973 346.903 56.0424 350.286 49.7322L346.247 47.5664C342.426 54.692 340.572 63.2315 340.572 73.0909H345.155ZM350.286 49.7322C353.698 43.3684 358.304 38.5798 364.104 35.292L361.844 31.3046C355.238 35.0491 350.039 40.4945 346.247 47.5664L350.286 49.7322ZM364.111 35.288C369.937 31.9591 376.542 30.2728 383.986 30.2728V25.6895C375.82 25.6895 368.418 27.548 361.837 31.3086L364.111 35.288ZM383.986 30.2728C391.368 30.2728 397.946 31.9576 403.774 35.288L406.048 31.3086C399.47 27.5494 392.097 25.6895 383.986 25.6895V30.2728ZM403.785 35.2942C409.613 38.5827 414.231 43.3711 417.642 49.7322L421.681 47.5664C417.888 40.4918 412.672 35.0462 406.037 31.3024L403.785 35.2942ZM417.646 49.7389C421.055 56.0475 422.816 63.7999 422.816 73.0909H427.399C427.399 63.2288 425.529 54.6869 421.678 47.5598L417.646 49.7389ZM408.575 73.0909C408.575 66.6723 407.615 61.1084 405.596 56.4805L401.395 58.3132C403.093 62.2041 403.991 67.1029 403.991 73.0909H408.575ZM405.602 56.4924C403.624 51.8875 400.77 48.2765 396.994 45.7917L394.475 49.6203C397.388 51.5378 399.709 54.3874 401.39 58.3013L405.602 56.4924ZM396.995 45.7917C393.232 43.3152 388.865 42.1125 383.986 42.1125V46.6959C388.082 46.6959 391.548 47.6944 394.475 49.6203L396.995 45.7917ZM383.986 42.1125C379.106 42.1125 374.739 43.3152 370.977 45.7917L373.496 49.6203C376.423 47.6944 379.889 46.6959 383.986 46.6959V42.1125ZM370.977 45.7917C367.204 48.2742 364.338 51.8809 362.332 56.4805L366.533 58.3132C368.242 54.394 370.579 51.54 373.496 49.6203L370.977 45.7917ZM362.327 56.4924C360.34 61.1166 359.396 66.6761 359.396 73.0909H363.98C363.98 67.0991 364.865 62.1959 366.538 58.3013L362.327 56.4924ZM359.396 73.0909C359.396 79.5057 360.34 85.0652 362.327 89.6894L366.538 87.8805C364.865 83.9859 363.98 79.0827 363.98 73.0909H359.396ZM362.332 89.7013C364.338 94.3009 367.204 97.9076 370.977 100.39L373.496 96.5616C370.579 94.6418 368.242 91.7878 366.533 87.8687L362.332 89.7013ZM370.977 100.39C374.739 102.867 379.106 104.069 383.986 104.069V99.4859C379.889 99.4859 376.423 98.4875 373.496 96.5616L370.977 100.39ZM383.986 104.069C388.865 104.069 393.232 102.867 396.995 100.39L394.475 96.5616C391.548 98.4875 388.082 99.4859 383.986 99.4859V104.069ZM396.994 100.39C400.77 97.9053 403.624 94.2943 405.602 89.6894L401.39 87.8805C399.709 91.7945 397.388 94.644 394.475 96.5616L396.994 100.39ZM405.596 89.7013C407.615 85.0734 408.575 79.5095 408.575 73.0909H403.991C403.991 79.0789 403.093 83.9777 401.395 87.8687L405.596 89.7013ZM438.861 117H436.57V119.292H438.861V117ZM438.861 29.1818V26.8901H436.57V29.1818H438.861ZM493.061 34.4561L491.955 36.4627L491.962 36.4665L493.061 34.4561ZM507.769 49.5069L505.739 50.5706L505.743 50.5775L507.769 49.5069ZM507.769 96.5891L505.741 95.5222L505.738 95.5291L507.769 96.5891ZM492.976 111.726L491.876 109.715L491.873 109.717L492.976 111.726ZM457.428 101.092H455.137V103.383H457.428V101.092ZM483.07 98.1757L484.126 100.21L484.132 100.207L483.07 98.1757ZM491.561 89.0423L489.48 88.081L489.477 88.0874L491.561 89.0423ZM491.561 57.0967L489.477 58.0515L489.483 58.0634L491.561 57.0967ZM483.113 48.0061L484.169 45.9721L483.113 48.0061ZM457.428 45.0903V42.7986H455.137V45.0903H457.428ZM469.992 114.708H438.861V119.292H469.992V114.708ZM441.153 117V29.1818H436.57V117H441.153ZM438.861 31.4735H470.249V26.8901H438.861V31.4735ZM470.249 31.4735C478.778 31.4735 485.984 33.1695 491.955 36.4627L494.168 32.4494C487.389 28.7103 479.388 26.8901 470.249 26.8901V31.4735ZM491.962 36.4665C497.933 39.7332 502.515 44.4174 505.739 50.5706L509.799 48.4432C506.163 41.5038 500.94 36.154 494.161 32.4456L491.962 36.4665ZM505.743 50.5775C508.992 56.726 510.666 64.174 510.666 73.0051H515.249C515.249 63.598 513.465 55.3805 509.796 48.4363L505.743 50.5775ZM510.666 73.0051C510.666 81.8658 508.992 89.3438 505.741 95.5222L509.797 97.6561C513.465 90.6846 515.249 82.4399 515.249 73.0051H510.666ZM505.738 95.5291C502.514 101.707 497.905 106.419 491.876 109.715L494.075 113.737C500.91 110 506.163 104.621 509.801 97.6492L505.738 95.5291ZM491.873 109.717C485.874 113.011 478.61 114.708 469.992 114.708V119.292C479.212 119.292 487.27 117.473 494.079 113.735L491.873 109.717ZM457.428 103.383H469.22V98.7999H457.428V103.383ZM469.22 103.383C474.969 103.383 479.972 102.366 484.126 100.21L482.015 96.1417C478.679 97.8731 474.448 98.7999 469.22 98.7999V103.383ZM484.132 100.207C488.386 97.9832 491.56 94.5443 493.644 89.9971L489.477 88.0874C487.788 91.7732 485.302 94.4233 482.009 96.1448L484.132 100.207ZM493.641 90.0035C495.742 85.4558 496.725 79.75 496.725 73.0051H492.142C492.142 79.3529 491.21 84.3386 489.48 88.081L493.641 90.0035ZM496.725 73.0051C496.725 66.315 495.742 60.6503 493.638 56.1299L489.483 58.0634C491.21 61.776 492.142 66.7169 492.142 73.0051H496.725ZM493.644 56.1418C491.561 51.5975 488.401 48.169 484.169 45.9721L482.058 50.0401C485.315 51.731 487.787 54.3629 489.477 58.0515L493.644 56.1418ZM484.169 45.9721C480.015 43.8157 475.012 42.7986 469.263 42.7986V47.382C474.491 47.382 478.722 48.3087 482.058 50.0401L484.169 45.9721ZM469.263 42.7986H457.428V47.382H469.263V42.7986ZM455.137 45.0903V101.092H459.72V45.0903H455.137Z" fill="black" mask="url(#path-1-outside-1_49_23)"/>
</g>
<defs>
<filter id="filter0_d_49_23" x="0.466146" y="27.9811" width="521.659" height="108.553" filterUnits="userSpaceOnUse" color-interpolation-filters="sRGB">
<feFlood flood-opacity="0" result="BackgroundImageFix"/>
<feColorMatrix in="SourceAlpha" type="matrix" values="0 0 0 0 0 0 0 0 0 0 0 0 0 0 0 0 0 0 127 0" result="hardAlpha"/>
<feOffset dy="9.16667"/>
<feGaussianBlur stdDeviation="4.58333"/>
<feComposite in2="hardAlpha" operator="out"/>
<feColorMatrix type="matrix" values="0 0 0 0 0 0 0 0 0 0 0 0 0 0 0 0 0 0 0.25 0"/>
<feBlend mode="normal" in2="BackgroundImageFix" result="effect1_dropShadow_49_23"/>
<feBlend mode="normal" in="SourceGraphic" in2="effect1_dropShadow_49_23" result="shape"/>
</filter>
</defs>
</svg>
