<svg width="232" height="25" viewBox="0 0 232 25" fill="none" xmlns="http://www.w3.org/2000/svg">
<g filter="url(#filter0_d_173_3)">
<mask id="path-1-outside-1_173_3" maskUnits="userSpaceOnUse" x="2" y="0" width="228" height="21" fill="black">
<rect fill="white" x="2" width="228" height="21"/>
<path d="M2.65921 20V0.909712H6.69539V8.78632H14.8889V0.909712H18.9158V20H14.8889V12.1141H6.69539V20H2.65921ZM22.2435 20V0.909712H35.1071V4.23746H26.2797V8.78632H34.4453V12.1141H26.2797V16.6722H35.1444V20H22.2435ZM38.316 20V0.909712H45.8477C47.2894 0.909712 48.5199 1.1676 49.539 1.68339C50.5644 2.19296 51.3443 2.91693 51.8787 3.85528C52.4193 4.78743 52.6897 5.88425 52.6897 7.14575C52.6897 8.41346 52.4162 9.50407 51.8694 10.4176C51.3225 11.3249 50.5302 12.0209 49.4924 12.5056C48.4608 12.9903 47.2118 13.2326 45.7452 13.2326H40.7023V9.98878H45.0927C45.8633 9.98878 46.5033 9.88314 47.0129 9.67186C47.5225 9.46057 47.9016 9.14364 48.1501 8.72107C48.4049 8.2985 48.5323 7.77339 48.5323 7.14575C48.5323 6.51189 48.4049 5.97746 48.1501 5.54246C47.9016 5.10746 47.5194 4.7781 47.0036 4.55439C46.494 4.32446 45.8508 4.2095 45.0741 4.2095H42.3522V20H38.316ZM48.6255 11.3124L53.3701 20H48.9145L44.2724 11.3124H48.6255ZM59.5782 0.909712V20H55.542V0.909712H59.5782ZM62.1719 4.23746V0.909712H77.8505V4.23746H72.006V20H68.0164V4.23746H62.1719ZM81.3903 20H77.0652L83.6554 0.909712H88.8568L95.4377 20H91.1126L86.3307 5.27214H86.1816L81.3903 20ZM81.12 12.4962H91.3363V15.6469H81.12V12.4962ZM109.497 7.0805C109.366 6.62686 109.183 6.22603 108.947 5.87803C108.711 5.52382 108.422 5.22553 108.08 4.98318C107.744 4.73461 107.359 4.54507 106.924 4.41457C106.495 4.28407 106.02 4.21882 105.498 4.21882C104.522 4.21882 103.665 4.46118 102.925 4.94589C102.192 5.4306 101.62 6.13593 101.21 7.06186C100.8 7.98157 100.595 9.10636 100.595 10.4362C100.595 11.7661 100.797 12.8971 101.201 13.8292C101.605 14.7614 102.176 15.4729 102.916 15.9638C103.655 16.4485 104.528 16.6909 105.535 16.6909C106.449 16.6909 107.229 16.5293 107.875 16.2062C108.527 15.8768 109.024 15.4139 109.366 14.8173C109.714 14.2207 109.888 13.5154 109.888 12.7013L110.709 12.8225H105.787V9.78371H113.775V12.1886C113.775 13.8665 113.421 15.3082 112.713 16.5138C112.004 17.7131 111.029 18.6391 109.786 19.2916C108.543 19.9379 107.12 20.261 105.517 20.261C103.727 20.261 102.155 19.8664 100.8 19.0772C99.4452 18.2817 98.3887 17.1539 97.6306 15.6935C96.8787 14.2269 96.5027 12.4869 96.5027 10.4735C96.5027 8.92614 96.7264 7.54657 97.1738 6.33478C97.6275 5.11678 98.2613 4.08521 99.0754 3.24007C99.8895 2.39493 100.837 1.75175 101.918 1.31053C103 0.869319 104.171 0.648712 105.433 0.648712C106.514 0.648712 107.521 0.807176 108.453 1.1241C109.385 1.43482 110.211 1.87603 110.932 2.44775C111.659 3.01946 112.253 3.69993 112.713 4.48914C113.173 5.27214 113.468 6.13593 113.598 7.0805H109.497ZM116.807 20V0.909712H129.671V4.23746H120.843V8.78632H129.009V12.1141H120.843V16.6722H129.708V20H116.807ZM151.613 7.0805C151.483 6.62686 151.3 6.22603 151.063 5.87803C150.827 5.52382 150.538 5.22553 150.196 4.98318C149.861 4.73461 149.476 4.54507 149.041 4.41457C148.612 4.28407 148.136 4.21882 147.614 4.21882C146.639 4.21882 145.781 4.46118 145.042 4.94589C144.308 5.4306 143.737 6.13593 143.327 7.06186C142.916 7.98157 142.711 9.10636 142.711 10.4362C142.711 11.7661 142.913 12.8971 143.317 13.8292C143.721 14.7614 144.293 15.4729 145.032 15.9638C145.772 16.4485 146.645 16.6909 147.652 16.6909C148.565 16.6909 149.345 16.5293 149.991 16.2062C150.644 15.8768 151.141 15.4139 151.483 14.8173C151.831 14.2207 152.005 13.5154 152.005 12.7013L152.825 12.8225H147.903V9.78371H155.892V12.1886C155.892 13.8665 155.538 15.3082 154.829 16.5138C154.121 17.7131 153.145 18.6391 151.902 19.2916C150.659 19.9379 149.236 20.261 147.633 20.261C145.843 20.261 144.271 19.8664 142.916 19.0772C141.562 18.2817 140.505 17.1539 139.747 15.6935C138.995 14.2269 138.619 12.4869 138.619 10.4735C138.619 8.92614 138.843 7.54657 139.29 6.33478C139.744 5.11678 140.378 4.08521 141.192 3.24007C142.006 2.39493 142.954 1.75175 144.035 1.31053C145.116 0.869319 146.288 0.648712 147.549 0.648712C148.63 0.648712 149.637 0.807176 150.569 1.1241C151.501 1.43482 152.328 1.87603 153.049 2.44775C153.776 3.01946 154.369 3.69993 154.829 4.48914C155.289 5.27214 155.584 6.13593 155.715 7.0805H151.613ZM158.924 20V0.909712H166.455C167.897 0.909712 169.128 1.1676 170.147 1.68339C171.172 2.19296 171.952 2.91693 172.486 3.85528C173.027 4.78743 173.297 5.88425 173.297 7.14575C173.297 8.41346 173.024 9.50407 172.477 10.4176C171.93 11.3249 171.138 12.0209 170.1 12.5056C169.068 12.9903 167.819 13.2326 166.353 13.2326H161.31V9.98878H165.7C166.471 9.98878 167.111 9.88314 167.621 9.67186C168.13 9.46057 168.509 9.14364 168.758 8.72107C169.013 8.2985 169.14 7.77339 169.14 7.14575C169.14 6.51189 169.013 5.97746 168.758 5.54246C168.509 5.10746 168.127 4.7781 167.611 4.55439C167.102 4.32446 166.458 4.2095 165.682 4.2095H162.96V20H158.924ZM169.233 11.3124L173.978 20H169.522L164.88 11.3124H169.233ZM179.44 20H175.115L181.705 0.909712H186.907L193.488 20H189.162L184.38 5.27214H184.231L179.44 20ZM179.17 12.4962H189.386V15.6469H179.17V12.4962ZM195.785 20V0.909712H203.317C204.765 0.909712 205.998 1.18625 207.018 1.73932C208.037 2.28618 208.814 3.04743 209.348 4.02307C209.889 4.9925 210.159 6.11107 210.159 7.37878C210.159 8.6465 209.885 9.76507 209.339 10.7345C208.792 11.7039 207.999 12.459 206.962 12.9996C205.93 13.5402 204.681 13.8106 203.214 13.8106H198.414V10.576H202.562C203.339 10.576 203.979 10.4424 204.482 10.1752C204.992 9.90178 205.371 9.52582 205.619 9.04732C205.874 8.56261 206.002 8.00643 206.002 7.37878C206.002 6.74493 205.874 6.19185 205.619 5.71957C205.371 5.24107 204.992 4.87132 204.482 4.61032C203.973 4.34311 203.326 4.2095 202.543 4.2095H199.821V20H195.785ZM212.781 20V0.909712H216.817V8.78632H225.01V0.909712H229.037V20H225.01V12.1141H216.817V20H212.781Z"/>
</mask>
<path d="M2.65921 20V0.909712H6.69539V8.78632H14.8889V0.909712H18.9158V20H14.8889V12.1141H6.69539V20H2.65921ZM22.2435 20V0.909712H35.1071V4.23746H26.2797V8.78632H34.4453V12.1141H26.2797V16.6722H35.1444V20H22.2435ZM38.316 20V0.909712H45.8477C47.2894 0.909712 48.5199 1.1676 49.539 1.68339C50.5644 2.19296 51.3443 2.91693 51.8787 3.85528C52.4193 4.78743 52.6897 5.88425 52.6897 7.14575C52.6897 8.41346 52.4162 9.50407 51.8694 10.4176C51.3225 11.3249 50.5302 12.0209 49.4924 12.5056C48.4608 12.9903 47.2118 13.2326 45.7452 13.2326H40.7023V9.98878H45.0927C45.8633 9.98878 46.5033 9.88314 47.0129 9.67186C47.5225 9.46057 47.9016 9.14364 48.1501 8.72107C48.4049 8.2985 48.5323 7.77339 48.5323 7.14575C48.5323 6.51189 48.4049 5.97746 48.1501 5.54246C47.9016 5.10746 47.5194 4.7781 47.0036 4.55439C46.494 4.32446 45.8508 4.2095 45.0741 4.2095H42.3522V20H38.316ZM48.6255 11.3124L53.3701 20H48.9145L44.2724 11.3124H48.6255ZM59.5782 0.909712V20H55.542V0.909712H59.5782ZM62.1719 4.23746V0.909712H77.8505V4.23746H72.006V20H68.0164V4.23746H62.1719ZM81.3903 20H77.0652L83.6554 0.909712H88.8568L95.4377 20H91.1126L86.3307 5.27214H86.1816L81.3903 20ZM81.12 12.4962H91.3363V15.6469H81.12V12.4962ZM109.497 7.0805C109.366 6.62686 109.183 6.22603 108.947 5.87803C108.711 5.52382 108.422 5.22553 108.08 4.98318C107.744 4.73461 107.359 4.54507 106.924 4.41457C106.495 4.28407 106.02 4.21882 105.498 4.21882C104.522 4.21882 103.665 4.46118 102.925 4.94589C102.192 5.4306 101.62 6.13593 101.21 7.06186C100.8 7.98157 100.595 9.10636 100.595 10.4362C100.595 11.7661 100.797 12.8971 101.201 13.8292C101.605 14.7614 102.176 15.4729 102.916 15.9638C103.655 16.4485 104.528 16.6909 105.535 16.6909C106.449 16.6909 107.229 16.5293 107.875 16.2062C108.527 15.8768 109.024 15.4139 109.366 14.8173C109.714 14.2207 109.888 13.5154 109.888 12.7013L110.709 12.8225H105.787V9.78371H113.775V12.1886C113.775 13.8665 113.421 15.3082 112.713 16.5138C112.004 17.7131 111.029 18.6391 109.786 19.2916C108.543 19.9379 107.12 20.261 105.517 20.261C103.727 20.261 102.155 19.8664 100.8 19.0772C99.4452 18.2817 98.3887 17.1539 97.6306 15.6935C96.8787 14.2269 96.5027 12.4869 96.5027 10.4735C96.5027 8.92614 96.7264 7.54657 97.1738 6.33478C97.6275 5.11678 98.2613 4.08521 99.0754 3.24007C99.8895 2.39493 100.837 1.75175 101.918 1.31053C103 0.869319 104.171 0.648712 105.433 0.648712C106.514 0.648712 107.521 0.807176 108.453 1.1241C109.385 1.43482 110.211 1.87603 110.932 2.44775C111.659 3.01946 112.253 3.69993 112.713 4.48914C113.173 5.27214 113.468 6.13593 113.598 7.0805H109.497ZM116.807 20V0.909712H129.671V4.23746H120.843V8.78632H129.009V12.1141H120.843V16.6722H129.708V20H116.807ZM151.613 7.0805C151.483 6.62686 151.3 6.22603 151.063 5.87803C150.827 5.52382 150.538 5.22553 150.196 4.98318C149.861 4.73461 149.476 4.54507 149.041 4.41457C148.612 4.28407 148.136 4.21882 147.614 4.21882C146.639 4.21882 145.781 4.46118 145.042 4.94589C144.308 5.4306 143.737 6.13593 143.327 7.06186C142.916 7.98157 142.711 9.10636 142.711 10.4362C142.711 11.7661 142.913 12.8971 143.317 13.8292C143.721 14.7614 144.293 15.4729 145.032 15.9638C145.772 16.4485 146.645 16.6909 147.652 16.6909C148.565 16.6909 149.345 16.5293 149.991 16.2062C150.644 15.8768 151.141 15.4139 151.483 14.8173C151.831 14.2207 152.005 13.5154 152.005 12.7013L152.825 12.8225H147.903V9.78371H155.892V12.1886C155.892 13.8665 155.538 15.3082 154.829 16.5138C154.121 17.7131 153.145 18.6391 151.902 19.2916C150.659 19.9379 149.236 20.261 147.633 20.261C145.843 20.261 144.271 19.8664 142.916 19.0772C141.562 18.2817 140.505 17.1539 139.747 15.6935C138.995 14.2269 138.619 12.4869 138.619 10.4735C138.619 8.92614 138.843 7.54657 139.29 6.33478C139.744 5.11678 140.378 4.08521 141.192 3.24007C142.006 2.39493 142.954 1.75175 144.035 1.31053C145.116 0.869319 146.288 0.648712 147.549 0.648712C148.63 0.648712 149.637 0.807176 150.569 1.1241C151.501 1.43482 152.328 1.87603 153.049 2.44775C153.776 3.01946 154.369 3.69993 154.829 4.48914C155.289 5.27214 155.584 6.13593 155.715 7.0805H151.613ZM158.924 20V0.909712H166.455C167.897 0.909712 169.128 1.1676 170.147 1.68339C171.172 2.19296 171.952 2.91693 172.486 3.85528C173.027 4.78743 173.297 5.88425 173.297 7.14575C173.297 8.41346 173.024 9.50407 172.477 10.4176C171.93 11.3249 171.138 12.0209 170.1 12.5056C169.068 12.9903 167.819 13.2326 166.353 13.2326H161.31V9.98878H165.7C166.471 9.98878 167.111 9.88314 167.621 9.67186C168.13 9.46057 168.509 9.14364 168.758 8.72107C169.013 8.2985 169.14 7.77339 169.14 7.14575C169.14 6.51189 169.013 5.97746 168.758 5.54246C168.509 5.10746 168.127 4.7781 167.611 4.55439C167.102 4.32446 166.458 4.2095 165.682 4.2095H162.96V20H158.924ZM169.233 11.3124L173.978 20H169.522L164.88 11.3124H169.233ZM179.44 20H175.115L181.705 0.909712H186.907L193.488 20H189.162L184.38 5.27214H184.231L179.44 20ZM179.17 12.4962H189.386V15.6469H179.17V12.4962ZM195.785 20V0.909712H203.317C204.765 0.909712 205.998 1.18625 207.018 1.73932C208.037 2.28618 208.814 3.04743 209.348 4.02307C209.889 4.9925 210.159 6.11107 210.159 7.37878C210.159 8.6465 209.885 9.76507 209.339 10.7345C208.792 11.7039 207.999 12.459 206.962 12.9996C205.93 13.5402 204.681 13.8106 203.214 13.8106H198.414V10.576H202.562C203.339 10.576 203.979 10.4424 204.482 10.1752C204.992 9.90178 205.371 9.52582 205.619 9.04732C205.874 8.56261 206.002 8.00643 206.002 7.37878C206.002 6.74493 205.874 6.19185 205.619 5.71957C205.371 5.24107 204.992 4.87132 204.482 4.61032C203.973 4.34311 203.326 4.2095 202.543 4.2095H199.821V20H195.785ZM212.781 20V0.909712H216.817V8.78632H225.01V0.909712H229.037V20H225.01V12.1141H216.817V20H212.781Z" fill="#1065B8"/>
<path d="M2.65921 20H2.12309V20.5361H2.65921V20ZM2.65921 0.909712V0.373582H2.12309V0.909712H2.65921ZM6.69539 0.909712H7.23152V0.373582H6.69539V0.909712ZM6.69539 8.78632H6.15926V9.32245H6.69539V8.78632ZM14.8889 8.78632V9.32245H15.4251V8.78632H14.8889ZM14.8889 0.909712V0.373582H14.3528V0.909712H14.8889ZM18.9158 0.909712H19.4519V0.373582H18.9158V0.909712ZM18.9158 20V20.5361H19.4519V20H18.9158ZM14.8889 20H14.3528V20.5361H14.8889V20ZM14.8889 12.1141H15.4251V11.5779H14.8889V12.1141ZM6.69539 12.1141V11.5779H6.15926V12.1141H6.69539ZM6.69539 20V20.5361H7.23152V20H6.69539ZM3.19534 20V0.909712H2.12309V20H3.19534ZM2.65921 1.44584H6.69539V0.373582H2.65921V1.44584ZM6.15926 0.909712V8.78632H7.23152V0.909712H6.15926ZM6.69539 9.32245H14.8889V8.25019H6.69539V9.32245ZM15.4251 8.78632V0.909712H14.3528V8.78632H15.4251ZM14.8889 1.44584H18.9158V0.373582H14.8889V1.44584ZM18.3797 0.909712V20H19.4519V0.909712H18.3797ZM18.9158 19.4639H14.8889V20.5361H18.9158V19.4639ZM15.4251 20V12.1141H14.3528V20H15.4251ZM14.8889 11.5779H6.69539V12.6502H14.8889V11.5779ZM6.15926 12.1141V20H7.23152V12.1141H6.15926ZM6.69539 19.4639H2.65921V20.5361H6.69539V19.4639ZM22.2435 20H21.7074V20.5361H22.2435V20ZM22.2435 0.909712V0.373582H21.7074V0.909712H22.2435ZM35.1071 0.909712H35.6432V0.373582H35.1071V0.909712ZM35.1071 4.23746V4.77359H35.6432V4.23746H35.1071ZM26.2797 4.23746V3.70133H25.7436V4.23746H26.2797ZM26.2797 8.78632H25.7436V9.32245H26.2797V8.78632ZM34.4453 8.78632H34.9814V8.25019H34.4453V8.78632ZM34.4453 12.1141V12.6502H34.9814V12.1141H34.4453ZM26.2797 12.1141V11.5779H25.7436V12.1141H26.2797ZM26.2797 16.6722H25.7436V17.2084H26.2797V16.6722ZM35.1444 16.6722H35.6805V16.1361H35.1444V16.6722ZM35.1444 20V20.5361H35.6805V20H35.1444ZM22.7797 20V0.909712H21.7074V20H22.7797ZM22.2435 1.44584H35.1071V0.373582H22.2435V1.44584ZM34.571 0.909712V4.23746H35.6432V0.909712H34.571ZM35.1071 3.70133H26.2797V4.77359H35.1071V3.70133ZM25.7436 4.23746V8.78632H26.8158V4.23746H25.7436ZM26.2797 9.32245H34.4453V8.25019H26.2797V9.32245ZM33.9092 8.78632V12.1141H34.9814V8.78632H33.9092ZM34.4453 11.5779H26.2797V12.6502H34.4453V11.5779ZM25.7436 12.1141V16.6722H26.8158V12.1141H25.7436ZM26.2797 17.2084H35.1444V16.1361H26.2797V17.2084ZM34.6083 16.6722V20H35.6805V16.6722H34.6083ZM35.1444 19.4639H22.2435V20.5361H35.1444V19.4639ZM38.316 20H37.7799V20.5361H38.316V20ZM38.316 0.909712V0.373582H37.7799V0.909712H38.316ZM49.539 1.68339L49.2969 2.16176L49.3004 2.1635L49.539 1.68339ZM51.8787 3.85528L51.4128 4.12062L51.4149 4.12427L51.8787 3.85528ZM51.8694 10.4176L52.3285 10.6943L52.3294 10.6929L51.8694 10.4176ZM49.4924 12.5056L49.2655 12.0198L49.2644 12.0203L49.4924 12.5056ZM40.7023 13.2326H40.1662V13.7688H40.7023V13.2326ZM40.7023 9.98878V9.45265H40.1662V9.98878H40.7023ZM47.0129 9.67186L47.2183 10.1671L47.2183 10.1671L47.0129 9.67186ZM48.1501 8.72107L47.691 8.44423L47.688 8.44924L48.1501 8.72107ZM48.1501 5.54246L47.6846 5.80847L47.6875 5.81342L48.1501 5.54246ZM47.0036 4.55439L46.7831 5.04313L46.7903 5.04625L47.0036 4.55439ZM42.3522 4.2095V3.67337H41.8161V4.2095H42.3522ZM42.3522 20V20.5361H42.8883V20H42.3522ZM48.6255 11.3124L49.096 11.0555L48.9436 10.7763H48.6255V11.3124ZM53.3701 20V20.5361H54.2738L53.8407 19.743L53.3701 20ZM48.9145 20L48.4416 20.2527L48.5931 20.5361H48.9145V20ZM44.2724 11.3124V10.7763H43.3781L43.7995 11.5651L44.2724 11.3124ZM38.8521 20V0.909712H37.7799V20H38.8521ZM38.316 1.44584H45.8477V0.373582H38.316V1.44584ZM45.8477 1.44584C47.2268 1.44584 48.3699 1.69259 49.2969 2.16175L49.7811 1.20503C48.6698 0.642623 47.3521 0.373582 45.8477 0.373582V1.44584ZM49.3004 2.1635C50.2364 2.62866 50.9344 3.28055 51.4128 4.12061L52.3446 3.58995C51.7542 2.5533 50.8923 1.75726 49.7776 1.20328L49.3004 2.1635ZM51.4149 4.12427C51.9006 4.96168 52.1535 5.96245 52.1535 7.14575H53.2258C53.2258 5.80605 52.938 4.61317 52.3425 3.5863L51.4149 4.12427ZM52.1535 7.14575C52.1535 8.33509 51.8976 9.32655 51.4094 10.1422L52.3294 10.6929C52.9348 9.68159 53.2258 8.49183 53.2258 7.14575H52.1535ZM51.4102 10.1408C50.9228 10.9494 50.2151 11.5763 49.2655 12.0198L49.7193 12.9913C50.8453 12.4654 51.7222 11.7003 52.3285 10.6943L51.4102 10.1408ZM49.2644 12.0203C48.3216 12.4634 47.1547 12.6965 45.7452 12.6965V13.7688C47.2688 13.7688 48.6001 13.5172 49.7204 12.9908L49.2644 12.0203ZM45.7452 12.6965H40.7023V13.7688H45.7452V12.6965ZM41.2384 13.2326V9.98878H40.1662V13.2326H41.2384ZM40.7023 10.5249H45.0927V9.45265H40.7023V10.5249ZM45.0927 10.5249C45.9077 10.5249 46.6232 10.4138 47.2183 10.1671L46.8076 9.17661C46.3834 9.35247 45.8188 9.45265 45.0927 9.45265V10.5249ZM47.2183 10.1671C47.8213 9.91707 48.2973 9.52829 48.6122 8.9929L47.688 8.44924C47.5058 8.759 47.2237 9.00407 46.8076 9.17661L47.2183 10.1671ZM48.6093 8.9979C48.9264 8.4719 49.0684 7.84479 49.0684 7.14575H47.9962C47.9962 7.702 47.8834 8.1251 47.691 8.44424L48.6093 8.9979ZM49.0684 7.14575C49.0684 6.44085 48.9266 5.80732 48.6127 5.2715L47.6875 5.81342C47.8832 6.1476 47.9962 6.58294 47.9962 7.14575H49.0684ZM48.6156 5.27647C48.3026 4.72876 47.8253 4.32642 47.2169 4.06253L46.7903 5.04625C47.2134 5.22979 47.5005 5.48616 47.6846 5.80846L48.6156 5.27647ZM47.2241 4.06571C46.6238 3.79482 45.8992 3.67337 45.0741 3.67337V4.74563C45.8025 4.74563 46.3643 4.8541 46.7831 5.04308L47.2241 4.06571ZM45.0741 3.67337H42.3522V4.74563H45.0741V3.67337ZM41.8161 4.2095V20H42.8883V4.2095H41.8161ZM42.3522 19.4639H38.316V20.5361H42.3522V19.4639ZM48.155 11.5694L52.8996 20.257L53.8407 19.743L49.096 11.0555L48.155 11.5694ZM53.3701 19.4639H48.9145V20.5361H53.3701V19.4639ZM49.3873 19.7473L44.7453 11.0598L43.7995 11.5651L48.4416 20.2527L49.3873 19.7473ZM44.2724 11.8486H48.6255V10.7763H44.2724V11.8486ZM59.5782 0.909712H60.1143V0.373582H59.5782V0.909712ZM59.5782 20V20.5361H60.1143V20H59.5782ZM55.542 20H55.0059V20.5361H55.542V20ZM55.542 0.909712V0.373582H55.0059V0.909712H55.542ZM59.0421 0.909712V20H60.1143V0.909712H59.0421ZM59.5782 19.4639H55.542V20.5361H59.5782V19.4639ZM56.0781 20V0.909712H55.0059V20H56.0781ZM55.542 1.44584H59.5782V0.373582H55.542V1.44584ZM62.1719 4.23746H61.6358V4.77359H62.1719V4.23746ZM62.1719 0.909712V0.373582H61.6358V0.909712H62.1719ZM77.8505 0.909712H78.3867V0.373582H77.8505V0.909712ZM77.8505 4.23746V4.77359H78.3867V4.23746H77.8505ZM72.006 4.23746V3.70133H71.4699V4.23746H72.006ZM72.006 20V20.5361H72.5421V20H72.006ZM68.0164 20H67.4803V20.5361H68.0164V20ZM68.0164 4.23746H68.5525V3.70133H68.0164V4.23746ZM62.708 4.23746V0.909712H61.6358V4.23746H62.708ZM62.1719 1.44584H77.8505V0.373582H62.1719V1.44584ZM77.3144 0.909712V4.23746H78.3867V0.909712H77.3144ZM77.8505 3.70133H72.006V4.77359H77.8505V3.70133ZM71.4699 4.23746V20H72.5421V4.23746H71.4699ZM72.006 19.4639H68.0164V20.5361H72.006V19.4639ZM68.5525 20V4.23746H67.4803V20H68.5525ZM68.0164 3.70133H62.1719V4.77359H68.0164V3.70133ZM81.3903 20V20.5361H81.7797L81.9002 20.1659L81.3903 20ZM77.0652 20L76.5584 19.8251L76.3129 20.5361H77.0652V20ZM83.6554 0.909712V0.373582H83.2733L83.1487 0.734763L83.6554 0.909712ZM88.8568 0.909712L89.3637 0.734984L89.2391 0.373582H88.8568V0.909712ZM95.4377 20V20.5361H96.1896L95.9446 19.8253L95.4377 20ZM91.1126 20L90.6027 20.1656L90.723 20.5361H91.1126V20ZM86.3307 5.27214L86.8406 5.10658L86.7203 4.73601H86.3307V5.27214ZM86.1816 5.27214V4.73601H85.7922L85.6717 5.10628L86.1816 5.27214ZM81.12 12.4962V11.9601H80.5839V12.4962H81.12ZM91.3363 12.4962H91.8724V11.9601H91.3363V12.4962ZM91.3363 15.6469V16.183H91.8724V15.6469H91.3363ZM81.12 15.6469H80.5839V16.183H81.12V15.6469ZM81.3903 19.4639H77.0652V20.5361H81.3903V19.4639ZM77.572 20.1749L84.1622 1.08466L83.1487 0.734763L76.5584 19.8251L77.572 20.1749ZM83.6554 1.44584H88.8568V0.373582H83.6554V1.44584ZM88.3499 1.08444L94.9309 20.1747L95.9446 19.8253L89.3637 0.734984L88.3499 1.08444ZM95.4377 19.4639H91.1126V20.5361H95.4377V19.4639ZM91.6225 19.8344L86.8406 5.10658L85.8208 5.43771L90.6027 20.1656L91.6225 19.8344ZM86.3307 4.73601H86.1816V5.80827H86.3307V4.73601ZM85.6717 5.10628L80.8805 19.8341L81.9002 20.1659L86.6914 5.438L85.6717 5.10628ZM81.12 13.0324H91.3363V11.9601H81.12V13.0324ZM90.8002 12.4962V15.6469H91.8724V12.4962H90.8002ZM91.3363 15.1108H81.12V16.183H91.3363V15.1108ZM81.6561 15.6469V12.4962H80.5839V15.6469H81.6561ZM109.497 7.0805L108.982 7.22872L109.093 7.61663H109.497V7.0805ZM108.947 5.87803L108.501 6.17543L108.503 6.17907L108.947 5.87803ZM108.08 4.98318L107.761 5.41408L107.77 5.42052L108.08 4.98318ZM106.924 4.41457L106.768 4.92747L106.77 4.92809L106.924 4.41457ZM102.925 4.94589L102.631 4.49749L102.63 4.49864L102.925 4.94589ZM101.21 7.06186L101.7 7.28021L101.7 7.27899L101.21 7.06186ZM102.916 15.9638L102.619 16.4105L102.622 16.4122L102.916 15.9638ZM107.875 16.2062L108.115 16.6857L108.116 16.6848L107.875 16.2062ZM109.366 14.8173L108.903 14.5471L108.901 14.5508L109.366 14.8173ZM109.888 12.7013L109.967 12.1709L109.352 12.0802V12.7013H109.888ZM110.709 12.8225V13.3586L110.787 12.2921L110.709 12.8225ZM105.787 12.8225H105.251V13.3586H105.787V12.8225ZM105.787 9.78371V9.24758H105.251V9.78371H105.787ZM113.775 9.78371H114.311V9.24758H113.775V9.78371ZM112.713 16.5138L113.174 16.7865L113.175 16.7854L112.713 16.5138ZM109.786 19.2916L110.033 19.7672L110.035 19.7663L109.786 19.2916ZM100.8 19.0772L100.528 19.5395L100.53 19.5404L100.8 19.0772ZM97.6306 15.6935L97.1535 15.9381L97.1548 15.9405L97.6306 15.6935ZM97.1738 6.33478L96.6714 6.14766L96.6709 6.14908L97.1738 6.33478ZM99.0754 3.24007L99.4616 3.61201L99.4616 3.61201L99.0754 3.24007ZM101.918 1.31053L101.716 0.814138L101.716 0.814138L101.918 1.31053ZM108.453 1.1241L108.28 1.63171L108.283 1.63272L108.453 1.1241ZM110.932 2.44775L110.599 2.86781L110.601 2.86919L110.932 2.44775ZM112.713 4.48914L112.249 4.75905L112.25 4.76065L112.713 4.48914ZM113.598 7.0805V7.61663H114.213L114.129 7.00713L113.598 7.0805ZM110.012 6.93228C109.868 6.43082 109.662 5.97718 109.39 5.577L108.503 6.17907C108.704 6.47488 108.865 6.82289 108.982 7.22872L110.012 6.93228ZM109.393 5.58064C109.121 5.17275 108.786 4.82675 108.39 4.54584L107.77 5.42052C108.057 5.62432 108.3 5.87489 108.501 6.17542L109.393 5.58064ZM108.399 4.55237C108.009 4.26379 107.567 4.04781 107.078 3.90105L106.77 4.92809C107.151 5.04233 107.479 5.20542 107.761 5.41399L108.399 4.55237ZM107.08 3.90167C106.593 3.75348 106.064 3.68269 105.498 3.68269V4.75495C105.975 4.75495 106.397 4.81466 106.768 4.92747L107.08 3.90167ZM105.498 3.68269C104.429 3.68269 103.467 3.94969 102.631 4.4975L103.219 5.39428C103.862 4.97267 104.615 4.75495 105.498 4.75495V3.68269ZM102.63 4.49864C101.798 5.04808 101.165 5.83966 100.72 6.84472L101.7 7.27899C102.075 6.4322 102.585 5.81313 103.221 5.39314L102.63 4.49864ZM100.72 6.8435C100.271 7.8502 100.059 9.05408 100.059 10.4362H101.131C101.131 9.15863 101.328 8.11294 101.7 7.28021L100.72 6.8435ZM100.059 10.4362C100.059 11.8178 100.268 13.0256 100.709 14.0424L101.693 13.616C101.325 12.7685 101.131 11.7143 101.131 10.4362H100.059ZM100.709 14.0424C101.148 15.0555 101.782 15.8543 102.619 16.4105L103.212 15.5172C102.571 15.0915 102.061 14.4672 101.693 13.616L100.709 14.0424ZM102.622 16.4122C103.46 16.9618 104.439 17.227 105.535 17.227V16.1548C104.618 16.1548 103.85 15.9352 103.21 15.5154L102.622 16.4122ZM105.535 17.227C106.51 17.227 107.377 17.0546 108.115 16.6857L107.635 15.7266C107.08 16.0041 106.387 16.1548 105.535 16.1548V17.227ZM108.116 16.6848C108.856 16.3113 109.434 15.7773 109.831 15.0838L108.901 14.5508C108.615 15.0504 108.198 15.4424 107.633 15.7276L108.116 16.6848ZM109.829 15.0874C110.233 14.3953 110.424 13.5932 110.424 12.7013H109.352C109.352 13.4376 109.195 14.0462 108.903 14.5471L109.829 15.0874ZM109.81 13.2317L110.63 13.3529L110.787 12.2921L109.967 12.1709L109.81 13.2317ZM110.709 12.2864H105.787V13.3586H110.709V12.2864ZM106.323 12.8225V9.78371H105.251V12.8225H106.323ZM105.787 10.3198H113.775V9.24758H105.787V10.3198ZM113.239 9.78371V12.1886H114.311V9.78371H113.239ZM113.239 12.1886C113.239 13.7901 112.902 15.134 112.25 16.2422L113.175 16.7854C113.941 15.4824 114.311 13.9429 114.311 12.1886H113.239ZM112.251 16.2411C111.594 17.354 110.692 18.2103 109.537 18.8169L110.035 19.7663C111.365 19.0678 112.415 18.0723 113.174 16.7864L112.251 16.2411ZM109.538 18.8159C108.382 19.4171 107.046 19.7249 105.517 19.7249V20.7971C107.193 20.7971 108.703 20.4586 110.033 19.7672L109.538 18.8159ZM105.517 19.7249C103.808 19.7249 102.332 19.349 101.07 18.6139L100.53 19.5404C101.978 20.3838 103.646 20.7971 105.517 20.7971V19.7249ZM101.071 18.6149C99.8079 17.873 98.8204 16.8217 98.1064 15.4465L97.1548 15.9405C97.9571 17.486 99.0825 18.6905 100.528 19.5395L101.071 18.6149ZM98.1077 15.4489C97.4022 14.073 97.0388 12.4205 97.0388 10.4735H95.9666C95.9666 12.5534 96.3551 14.3809 97.1535 15.9381L98.1077 15.4489ZM97.0388 10.4735C97.0388 8.97731 97.2552 7.66235 97.6768 6.52048L96.6709 6.14908C96.1977 7.43079 95.9666 8.87497 95.9666 10.4735H97.0388ZM97.6763 6.52191C98.107 5.36538 98.7038 4.39873 99.4616 3.61201L98.6893 2.86813C97.8189 3.77169 97.148 4.86818 96.6714 6.14766L97.6763 6.52191ZM99.4616 3.61201C100.224 2.82042 101.109 2.21977 102.121 1.80693L101.716 0.814138C100.565 1.28373 99.555 1.96943 98.6893 2.86813L99.4616 3.61201ZM102.121 1.80693C103.133 1.39399 104.235 1.18484 105.433 1.18484V0.112582C104.107 0.112582 102.866 0.344643 101.716 0.814138L102.121 1.80693ZM105.433 1.18484C106.461 1.18484 107.409 1.33543 108.28 1.6317L108.625 0.616512C107.632 0.278924 106.567 0.112582 105.433 0.112582V1.18484ZM108.283 1.63272C109.16 1.92503 109.93 2.33749 110.599 2.8678L111.265 2.02769C110.492 1.41458 109.61 0.944612 108.622 0.615488L108.283 1.63272ZM110.601 2.86919C111.276 3.39969 111.824 4.02895 112.249 4.75905L113.176 4.21923C112.682 3.3709 112.043 2.63923 111.264 2.0263L110.601 2.86919ZM112.25 4.76065C112.673 5.47975 112.946 6.27567 113.067 7.15387L114.129 7.00713C113.99 5.99619 113.672 5.06453 113.175 4.21763L112.25 4.76065ZM113.598 6.54437H109.497V7.61663H113.598V6.54437ZM116.807 20H116.271V20.5361H116.807V20ZM116.807 0.909712V0.373582H116.271V0.909712H116.807ZM129.671 0.909712H130.207V0.373582H129.671V0.909712ZM129.671 4.23746V4.77359H130.207V4.23746H129.671ZM120.843 4.23746V3.70133H120.307V4.23746H120.843ZM120.843 8.78632H120.307V9.32245H120.843V8.78632ZM129.009 8.78632H129.545V8.25019H129.009V8.78632ZM129.009 12.1141V12.6502H129.545V12.1141H129.009ZM120.843 12.1141V11.5779H120.307V12.1141H120.843ZM120.843 16.6722H120.307V17.2084H120.843V16.6722ZM129.708 16.6722H130.244V16.1361H129.708V16.6722ZM129.708 20V20.5361H130.244V20H129.708ZM117.343 20V0.909712H116.271V20H117.343ZM116.807 1.44584H129.671V0.373582H116.807V1.44584ZM129.135 0.909712V4.23746H130.207V0.909712H129.135ZM129.671 3.70133H120.843V4.77359H129.671V3.70133ZM120.307 4.23746V8.78632H121.379V4.23746H120.307ZM120.843 9.32245H129.009V8.25019H120.843V9.32245ZM128.473 8.78632V12.1141H129.545V8.78632H128.473ZM129.009 11.5779H120.843V12.6502H129.009V11.5779ZM120.307 12.1141V16.6722H121.379V12.1141H120.307ZM120.843 17.2084H129.708V16.1361H120.843V17.2084ZM129.172 16.6722V20H130.244V16.6722H129.172ZM129.708 19.4639H116.807V20.5361H129.708V19.4639ZM151.613 7.0805L151.098 7.22872L151.21 7.61663H151.613V7.0805ZM151.063 5.87803L150.617 6.17543L150.62 6.17907L151.063 5.87803ZM150.196 4.98318L149.877 5.41408L149.886 5.42052L150.196 4.98318ZM149.041 4.41457L148.885 4.92747L148.887 4.92809L149.041 4.41457ZM145.042 4.94589L144.748 4.49749L144.746 4.49864L145.042 4.94589ZM143.327 7.06186L143.816 7.28021L143.817 7.27899L143.327 7.06186ZM145.032 15.9638L144.736 16.4105L144.738 16.4122L145.032 15.9638ZM149.991 16.2062L150.231 16.6857L150.233 16.6848L149.991 16.2062ZM151.483 14.8173L151.02 14.5471L151.018 14.5508L151.483 14.8173ZM152.005 12.7013L152.083 12.1709L151.469 12.0802V12.7013H152.005ZM152.825 12.8225V13.3586L152.903 12.2921L152.825 12.8225ZM147.903 12.8225H147.367V13.3586H147.903V12.8225ZM147.903 9.78371V9.24758H147.367V9.78371H147.903ZM155.892 9.78371H156.428V9.24758H155.892V9.78371ZM154.829 16.5138L155.291 16.7865L155.291 16.7854L154.829 16.5138ZM151.902 19.2916L152.15 19.7672L152.151 19.7663L151.902 19.2916ZM142.916 19.0772L142.645 19.5395L142.647 19.5404L142.916 19.0772ZM139.747 15.6935L139.27 15.9381L139.271 15.9405L139.747 15.6935ZM139.29 6.33478L138.788 6.14766L138.787 6.14908L139.29 6.33478ZM141.192 3.24007L141.578 3.61201L141.578 3.61201L141.192 3.24007ZM144.035 1.31053L143.832 0.814138L143.832 0.814138L144.035 1.31053ZM150.569 1.1241L150.397 1.63171L150.4 1.63272L150.569 1.1241ZM153.049 2.44775L152.716 2.86781L152.717 2.86919L153.049 2.44775ZM154.829 4.48914L154.366 4.75905L154.367 4.76065L154.829 4.48914ZM155.715 7.0805V7.61663H156.33L156.246 7.00713L155.715 7.0805ZM152.129 6.93228C151.984 6.43082 151.779 5.97718 151.507 5.577L150.62 6.17907C150.82 6.47488 150.981 6.82289 151.098 7.22872L152.129 6.93228ZM151.509 5.58064C151.238 5.17275 150.903 4.82675 150.507 4.54584L149.886 5.42052C150.174 5.62432 150.417 5.87489 150.617 6.17542L151.509 5.58064ZM150.516 4.55237C150.126 4.26379 149.684 4.04781 149.195 3.90105L148.887 4.92809C149.267 5.04233 149.596 5.20542 149.877 5.41399L150.516 4.55237ZM149.197 3.90167C148.71 3.75348 148.181 3.68269 147.614 3.68269V4.75495C148.092 4.75495 148.514 4.81466 148.885 4.92747L149.197 3.90167ZM147.614 3.68269C146.546 3.68269 145.584 3.94969 144.748 4.4975L145.336 5.39428C145.979 4.97267 146.732 4.75495 147.614 4.75495V3.68269ZM144.746 4.49864C143.915 5.04808 143.282 5.83966 142.836 6.84472L143.817 7.27899C144.192 6.4322 144.702 5.81313 145.337 5.39314L144.746 4.49864ZM142.837 6.8435C142.388 7.8502 142.175 9.05408 142.175 10.4362H143.247C143.247 9.15863 143.445 8.11294 143.816 7.28021L142.837 6.8435ZM142.175 10.4362C142.175 11.8178 142.385 13.0256 142.825 14.0424L143.809 13.616C143.442 12.7685 143.247 11.7143 143.247 10.4362H142.175ZM142.825 14.0424C143.264 15.0555 143.898 15.8543 144.736 16.4105L145.329 15.5172C144.688 15.0915 144.178 14.4672 143.809 13.616L142.825 14.0424ZM144.738 16.4122C145.577 16.9618 146.555 17.227 147.652 17.227V16.1548C146.735 16.1548 145.967 15.9352 145.326 15.5154L144.738 16.4122ZM147.652 17.227C148.627 17.227 149.493 17.0546 150.231 16.6857L149.752 15.7266C149.197 16.0041 148.503 16.1548 147.652 16.1548V17.227ZM150.233 16.6848C150.973 16.3113 151.551 15.7773 151.948 15.0838L151.018 14.5508C150.731 15.0504 150.315 15.4424 149.75 15.7276L150.233 16.6848ZM151.946 15.0874C152.35 14.3953 152.541 13.5932 152.541 12.7013H151.469C151.469 13.4376 151.312 14.0462 151.02 14.5471L151.946 15.0874ZM151.926 13.2317L152.747 13.3529L152.903 12.2921L152.083 12.1709L151.926 13.2317ZM152.825 12.2864H147.903V13.3586H152.825V12.2864ZM148.44 12.8225V9.78371H147.367V12.8225H148.44ZM147.903 10.3198H155.892V9.24758H147.903V10.3198ZM155.356 9.78371V12.1886H156.428V9.78371H155.356ZM155.356 12.1886C155.356 13.7901 155.018 15.134 154.367 16.2422L155.291 16.7854C156.057 15.4824 156.428 13.9429 156.428 12.1886H155.356ZM154.368 16.2411C153.71 17.354 152.808 18.2103 151.653 18.8169L152.151 19.7663C153.482 19.0678 154.531 18.0723 155.291 16.7864L154.368 16.2411ZM151.655 18.8159C150.499 19.4171 149.163 19.7249 147.633 19.7249V20.7971C149.31 20.7971 150.82 20.4586 152.15 19.7672L151.655 18.8159ZM147.633 19.7249C145.925 19.7249 144.448 19.349 143.186 18.6139L142.647 19.5404C144.094 20.3838 145.762 20.7971 147.633 20.7971V19.7249ZM143.188 18.6149C141.924 17.873 140.937 16.8217 140.223 15.4465L139.271 15.9405C140.074 17.486 141.199 18.6905 142.645 19.5395L143.188 18.6149ZM140.224 15.4489C139.519 14.073 139.155 12.4205 139.155 10.4735H138.083C138.083 12.5534 138.472 14.3809 139.27 15.9381L140.224 15.4489ZM139.155 10.4735C139.155 8.97731 139.372 7.66235 139.793 6.52048L138.787 6.14908C138.314 7.43079 138.083 8.87497 138.083 10.4735H139.155ZM139.793 6.52191C140.224 5.36538 140.82 4.39873 141.578 3.61201L140.806 2.86813C139.935 3.77169 139.265 4.86818 138.788 6.14766L139.793 6.52191ZM141.578 3.61201C142.341 2.82042 143.226 2.21977 144.238 1.80693L143.832 0.814138C142.682 1.28373 141.671 1.96943 140.806 2.86813L141.578 3.61201ZM144.238 1.80693C145.25 1.39399 146.352 1.18484 147.549 1.18484V0.112582C146.224 0.112582 144.983 0.344643 143.832 0.814138L144.238 1.80693ZM147.549 1.18484C148.578 1.18484 149.525 1.33543 150.397 1.6317L150.742 0.616512C149.749 0.278924 148.683 0.112582 147.549 0.112582V1.18484ZM150.4 1.63272C151.277 1.92503 152.047 2.33749 152.716 2.8678L153.382 2.02769C152.609 1.41458 151.726 0.944612 150.739 0.615488L150.4 1.63272ZM152.717 2.86919C153.392 3.39969 153.941 4.02895 154.366 4.75905L155.292 4.21923C154.798 3.3709 154.16 2.63923 153.38 2.0263L152.717 2.86919ZM154.367 4.76065C154.789 5.47975 155.062 6.27567 155.184 7.15387L156.246 7.00713C156.106 5.99619 155.789 5.06453 155.292 4.21763L154.367 4.76065ZM155.715 6.54437H151.613V7.61663H155.715V6.54437ZM158.924 20H158.388V20.5361H158.924V20ZM158.924 0.909712V0.373582H158.388V0.909712H158.924ZM170.147 1.68339L169.905 2.16176L169.908 2.1635L170.147 1.68339ZM172.486 3.85528L172.02 4.12062L172.023 4.12427L172.486 3.85528ZM172.477 10.4176L172.936 10.6943L172.937 10.6929L172.477 10.4176ZM170.1 12.5056L169.873 12.0198L169.872 12.0203L170.1 12.5056ZM161.31 13.2326H160.774V13.7688H161.31V13.2326ZM161.31 9.98878V9.45265H160.774V9.98878H161.31ZM167.621 9.67186L167.826 10.1671L167.826 10.1671L167.621 9.67186ZM168.758 8.72107L168.299 8.44423L168.296 8.44924L168.758 8.72107ZM168.758 5.54246L168.292 5.80847L168.295 5.81342L168.758 5.54246ZM167.611 4.55439L167.391 5.04313L167.398 5.04625L167.611 4.55439ZM162.96 4.2095V3.67337H162.424V4.2095H162.96ZM162.96 20V20.5361H163.496V20H162.96ZM169.233 11.3124L169.704 11.0555L169.551 10.7763H169.233V11.3124ZM173.978 20V20.5361H174.881L174.448 19.743L173.978 20ZM169.522 20L169.049 20.2527L169.201 20.5361H169.522V20ZM164.88 11.3124V10.7763H163.986L164.407 11.5651L164.88 11.3124ZM159.46 20V0.909712H158.388V20H159.46ZM158.924 1.44584H166.455V0.373582H158.924V1.44584ZM166.455 1.44584C167.834 1.44584 168.978 1.69259 169.905 2.16175L170.389 1.20503C169.277 0.642623 167.96 0.373582 166.455 0.373582V1.44584ZM169.908 2.1635C170.844 2.62866 171.542 3.28055 172.02 4.12061L172.952 3.58995C172.362 2.5533 171.5 1.75726 170.385 1.20328L169.908 2.1635ZM172.023 4.12427C172.508 4.96168 172.761 5.96245 172.761 7.14575H173.833C173.833 5.80605 173.546 4.61317 172.95 3.5863L172.023 4.12427ZM172.761 7.14575C172.761 8.33509 172.505 9.32655 172.017 10.1422L172.937 10.6929C173.542 9.68159 173.833 8.49183 173.833 7.14575H172.761ZM172.018 10.1408C171.53 10.9494 170.823 11.5763 169.873 12.0198L170.327 12.9913C171.453 12.4654 172.33 11.7003 172.936 10.6943L172.018 10.1408ZM169.872 12.0203C168.929 12.4634 167.762 12.6965 166.353 12.6965V13.7688C167.876 13.7688 169.208 13.5172 170.328 12.9908L169.872 12.0203ZM166.353 12.6965H161.31V13.7688H166.353V12.6965ZM161.846 13.2326V9.98878H160.774V13.2326H161.846ZM161.31 10.5249H165.7V9.45265H161.31V10.5249ZM165.7 10.5249C166.515 10.5249 167.231 10.4138 167.826 10.1671L167.415 9.17661C166.991 9.35247 166.426 9.45265 165.7 9.45265V10.5249ZM167.826 10.1671C168.429 9.91707 168.905 9.52829 169.22 8.9929L168.296 8.44924C168.113 8.759 167.831 9.00407 167.415 9.17661L167.826 10.1671ZM169.217 8.9979C169.534 8.4719 169.676 7.84479 169.676 7.14575H168.604C168.604 7.702 168.491 8.1251 168.299 8.44424L169.217 8.9979ZM169.676 7.14575C169.676 6.44085 169.534 5.80732 169.22 5.2715L168.295 5.81342C168.491 6.1476 168.604 6.58294 168.604 7.14575H169.676ZM169.223 5.27647C168.91 4.72876 168.433 4.32642 167.825 4.06253L167.398 5.04625C167.821 5.22979 168.108 5.48616 168.292 5.80846L169.223 5.27647ZM167.832 4.06571C167.231 3.79482 166.507 3.67337 165.682 3.67337V4.74563C166.41 4.74563 166.972 4.8541 167.391 5.04308L167.832 4.06571ZM165.682 3.67337H162.96V4.74563H165.682V3.67337ZM162.424 4.2095V20H163.496V4.2095H162.424ZM162.96 19.4639H158.924V20.5361H162.96V19.4639ZM168.763 11.5694L173.507 20.257L174.448 19.743L169.704 11.0555L168.763 11.5694ZM173.978 19.4639H169.522V20.5361H173.978V19.4639ZM169.995 19.7473L165.353 11.0598L164.407 11.5651L169.049 20.2527L169.995 19.7473ZM164.88 11.8486H169.233V10.7763H164.88V11.8486ZM179.44 20V20.5361H179.83L179.95 20.1659L179.44 20ZM175.115 20L174.608 19.8251L174.363 20.5361H175.115V20ZM181.705 0.909712V0.373582H181.323L181.198 0.734763L181.705 0.909712ZM186.907 0.909712L187.413 0.734984L187.289 0.373582H186.907V0.909712ZM193.488 20V20.5361H194.239L193.994 19.8253L193.488 20ZM189.162 20L188.652 20.1656L188.773 20.5361H189.162V20ZM184.38 5.27214L184.89 5.10658L184.77 4.73601H184.38V5.27214ZM184.231 5.27214V4.73601H183.842L183.722 5.10628L184.231 5.27214ZM179.17 12.4962V11.9601H178.634V12.4962H179.17ZM189.386 12.4962H189.922V11.9601H189.386V12.4962ZM189.386 15.6469V16.183H189.922V15.6469H189.386ZM179.17 15.6469H178.634V16.183H179.17V15.6469ZM179.44 19.4639H175.115V20.5361H179.44V19.4639ZM175.622 20.1749L182.212 1.08466L181.198 0.734763L174.608 19.8251L175.622 20.1749ZM181.705 1.44584H186.907V0.373582H181.705V1.44584ZM186.4 1.08444L192.981 20.1747L193.994 19.8253L187.413 0.734984L186.4 1.08444ZM193.488 19.4639H189.162V20.5361H193.488V19.4639ZM189.672 19.8344L184.89 5.10658L183.871 5.43771L188.652 20.1656L189.672 19.8344ZM184.38 4.73601H184.231V5.80827H184.38V4.73601ZM183.722 5.10628L178.93 19.8341L179.95 20.1659L184.741 5.438L183.722 5.10628ZM179.17 13.0324H189.386V11.9601H179.17V13.0324ZM188.85 12.4962V15.6469H189.922V12.4962H188.85ZM189.386 15.1108H179.17V16.183H189.386V15.1108ZM179.706 15.6469V12.4962H178.634V15.6469H179.706ZM195.785 20H195.249V20.5361H195.785V20ZM195.785 0.909712V0.373582H195.249V0.909712H195.785ZM207.018 1.73932L206.762 2.21054L206.764 2.21174L207.018 1.73932ZM209.348 4.02307L208.878 4.28064L208.88 4.2842L209.348 4.02307ZM206.962 12.9996L206.714 12.5241L206.713 12.5247L206.962 12.9996ZM198.414 13.8106H197.878V14.3467H198.414V13.8106ZM198.414 10.576V10.0399H197.878V10.576H198.414ZM204.482 10.1752L204.734 10.6488L204.736 10.6476L204.482 10.1752ZM205.619 9.04732L205.145 8.79787L205.144 8.80017L205.619 9.04732ZM205.619 5.71957L205.144 5.96675L205.148 5.97412L205.619 5.71957ZM204.482 4.61032L204.233 5.08515L204.238 5.0875L204.482 4.61032ZM199.821 4.2095V3.67337H199.285V4.2095H199.821ZM199.821 20V20.5361H200.358V20H199.821ZM196.321 20V0.909712H195.249V20H196.321ZM195.785 1.44584H203.317V0.373582H195.785V1.44584ZM203.317 1.44584C204.697 1.44584 205.838 1.70939 206.762 2.21053L207.273 1.26811C206.158 0.663106 204.832 0.373582 203.317 0.373582V1.44584ZM206.764 2.21174C207.696 2.71154 208.395 3.39983 208.878 4.28063L209.818 3.7655C209.232 2.69502 208.378 1.86081 207.271 1.2669L206.764 2.21174ZM208.88 4.2842C209.37 5.16304 209.623 6.18932 209.623 7.37878H210.695C210.695 6.03282 210.407 4.82195 209.816 3.76194L208.88 4.2842ZM209.623 7.37878C209.623 8.56722 209.367 9.59267 208.872 10.4711L209.806 10.9979C210.404 9.93747 210.695 8.72578 210.695 7.37878H209.623ZM208.872 10.4711C208.378 11.3453 207.665 12.0289 206.714 12.5241L207.209 13.4751C208.334 12.8891 209.205 12.0625 209.806 10.9979L208.872 10.4711ZM206.713 12.5247C205.775 13.016 204.616 13.2744 203.214 13.2744V14.3467C204.746 14.3467 206.085 14.0645 207.211 13.4745L206.713 12.5247ZM203.214 13.2744H198.414V14.3467H203.214V13.2744ZM198.95 13.8106V10.576H197.878V13.8106H198.95ZM198.414 11.1122H202.562V10.0399H198.414V11.1122ZM202.562 11.1122C203.396 11.1122 204.13 10.9693 204.734 10.6488L204.231 9.70167C203.828 9.9156 203.281 10.0399 202.562 10.0399V11.1122ZM204.736 10.6476C205.333 10.3271 205.793 9.87576 206.095 9.29447L205.144 8.80017C204.948 9.17588 204.65 9.47649 204.229 9.7028L204.736 10.6476ZM206.094 9.29677C206.395 8.72454 206.538 8.08054 206.538 7.37878H205.465C205.465 7.93231 205.354 8.40067 205.145 8.79787L206.094 9.29677ZM206.538 7.37878C206.538 6.67217 206.395 6.02856 206.091 5.46502L205.148 5.97412C205.353 6.35515 205.465 6.81769 205.465 7.37878H206.538ZM206.095 5.47242C205.792 4.88879 205.329 4.4416 204.727 4.13314L204.238 5.0875C204.655 5.30104 204.95 5.59335 205.144 5.96672L206.095 5.47242ZM204.731 4.13551C204.122 3.81614 203.383 3.67337 202.543 3.67337V4.74563C203.269 4.74563 203.823 4.87007 204.233 5.08513L204.731 4.13551ZM202.543 3.67337H199.821V4.74563H202.543V3.67337ZM199.285 4.2095V20H200.358V4.2095H199.285ZM199.821 19.4639H195.785V20.5361H199.821V19.4639ZM212.781 20H212.244V20.5361H212.781V20ZM212.781 0.909712V0.373582H212.244V0.909712H212.781ZM216.817 0.909712H217.353V0.373582H216.817V0.909712ZM216.817 8.78632H216.281V9.32245H216.817V8.78632ZM225.01 8.78632V9.32245H225.546V8.78632H225.01ZM225.01 0.909712V0.373582H224.474V0.909712H225.01ZM229.037 0.909712H229.573V0.373582H229.037V0.909712ZM229.037 20V20.5361H229.573V20H229.037ZM225.01 20H224.474V20.5361H225.01V20ZM225.01 12.1141H225.546V11.5779H225.01V12.1141ZM216.817 12.1141V11.5779H216.281V12.1141H216.817ZM216.817 20V20.5361H217.353V20H216.817ZM213.317 20V0.909712H212.244V20H213.317ZM212.781 1.44584H216.817V0.373582H212.781V1.44584ZM216.281 0.909712V8.78632H217.353V0.909712H216.281ZM216.817 9.32245H225.01V8.25019H216.817V9.32245ZM225.546 8.78632V0.909712H224.474V8.78632H225.546ZM225.01 1.44584H229.037V0.373582H225.01V1.44584ZM228.501 0.909712V20H229.573V0.909712H228.501ZM229.037 19.4639H225.01V20.5361H229.037V19.4639ZM225.546 20V12.1141H224.474V20H225.546ZM225.01 11.5779H216.817V12.6502H225.01V11.5779ZM216.281 12.1141V20H217.353V12.1141H216.281ZM216.817 19.4639H212.781V20.5361H216.817V19.4639Z" fill="black" mask="url(#path-1-outside-1_173_3)"/>
</g>
<defs>
<filter id="filter0_d_173_3" x="0.515639" y="0.648682" width="230.666" height="23.9013" filterUnits="userSpaceOnUse" color-interpolation-filters="sRGB">
<feFlood flood-opacity="0" result="BackgroundImageFix"/>
<feColorMatrix in="SourceAlpha" type="matrix" values="0 0 0 0 0 0 0 0 0 0 0 0 0 0 0 0 0 0 127 0" result="hardAlpha"/>
<feOffset dy="2.14452"/>
<feGaussianBlur stdDeviation="1.07226"/>
<feComposite in2="hardAlpha" operator="out"/>
<feColorMatrix type="matrix" values="0 0 0 0 0 0 0 0 0 0 0 0 0 0 0 0 0 0 0.25 0"/>
<feBlend mode="normal" in2="BackgroundImageFix" result="effect1_dropShadow_173_3"/>
<feBlend mode="normal" in="SourceGraphic" in2="effect1_dropShadow_173_3" result="shape"/>
</filter>
</defs>
</svg>
