<svg width="234" height="49" viewBox="0 0 234 49" fill="none" xmlns="http://www.w3.org/2000/svg">
<g filter="url(#filter0_d_63_210)">
<mask id="path-1-outside-1_63_210" maskUnits="userSpaceOnUse" x="3" y="-1" width="228" height="43" fill="black">
<rect fill="white" x="3" y="-1" width="228" height="43"/>
<path d="M37.2621 0.727272V40H30.0902L13.0043 15.282H12.7166V40H4.41335V0.727272H11.7003L28.652 25.4261H28.9972V0.727272H37.2621ZM78.7736 14.4766H70.3745C70.2211 13.3899 69.9078 12.4247 69.4348 11.581C68.9618 10.7244 68.3546 9.99574 67.6131 9.39489C66.8716 8.79403 66.0151 8.3338 65.0435 8.0142C64.0847 7.6946 63.0428 7.5348 61.9178 7.5348C59.8851 7.5348 58.1145 8.03977 56.606 9.04971C55.0975 10.0469 53.9277 11.5043 53.0968 13.4219C52.2658 15.3267 51.8503 17.6406 51.8503 20.3636C51.8503 23.1634 52.2658 25.5156 53.0968 27.4205C53.9405 29.3253 55.1167 30.7635 56.6252 31.7351C58.1337 32.7067 59.8787 33.1925 61.8603 33.1925C62.9725 33.1925 64.0016 33.0455 64.9476 32.7514C65.9064 32.4574 66.7566 32.0291 67.498 31.4666C68.2395 30.8913 68.8532 30.1946 69.339 29.3764C69.8375 28.5582 70.1827 27.625 70.3745 26.5767L78.7736 26.6151C78.5563 28.4176 78.013 30.1562 77.1436 31.831C76.2871 33.4929 75.1302 34.9822 73.6728 36.299C72.2282 37.603 70.5023 38.6385 68.4952 39.4055C66.5009 40.1598 64.2445 40.5369 61.726 40.5369C58.2232 40.5369 55.0911 39.7443 52.3297 38.1591C49.5811 36.5739 47.4078 34.2791 45.8098 31.2749C44.2246 28.2706 43.432 24.6335 43.432 20.3636C43.432 16.081 44.2374 12.4375 45.8482 9.43324C47.459 6.42898 49.6451 4.14062 52.4064 2.56818C55.1678 0.982954 58.2743 0.190339 61.726 0.190339C64.0016 0.190339 66.111 0.509942 68.0542 1.14915C70.0101 1.78835 71.7424 2.72159 73.2509 3.94886C74.7594 5.16335 75.9867 6.6527 76.9327 8.4169C77.8915 10.1811 78.5051 12.201 78.7736 14.4766ZM84.7278 40V0.727272H93.0311V16.9311H109.887V0.727272H118.171V40H109.887V23.777H93.0311V40H84.7278ZM125.017 40V0.727272H133.32V33.1541H150.157V40H125.017ZM190.216 20.3636C190.216 24.6463 189.404 28.2898 187.78 31.294C186.17 34.2983 183.971 36.593 181.184 38.1783C178.41 39.7507 175.29 40.5369 171.826 40.5369C168.336 40.5369 165.204 39.7443 162.43 38.1591C159.655 36.5739 157.463 34.2791 155.852 31.2749C154.241 28.2706 153.436 24.6335 153.436 20.3636C153.436 16.081 154.241 12.4375 155.852 9.43324C157.463 6.42898 159.655 4.14062 162.43 2.56818C165.204 0.982954 168.336 0.190339 171.826 0.190339C175.29 0.190339 178.41 0.982954 181.184 2.56818C183.971 4.14062 186.17 6.42898 187.78 9.43324C189.404 12.4375 190.216 16.081 190.216 20.3636ZM181.797 20.3636C181.797 17.5895 181.382 15.25 180.551 13.3452C179.733 11.4403 178.576 9.99574 177.08 9.01136C175.584 8.02699 173.833 7.5348 171.826 7.5348C169.819 7.5348 168.067 8.02699 166.572 9.01136C165.076 9.99574 163.912 11.4403 163.081 13.3452C162.263 15.25 161.854 17.5895 161.854 20.3636C161.854 23.1378 162.263 25.4773 163.081 27.3821C163.912 29.2869 165.076 30.7315 166.572 31.7159C168.067 32.7003 169.819 33.1925 171.826 33.1925C173.833 33.1925 175.584 32.7003 177.08 31.7159C178.576 30.7315 179.733 29.2869 180.551 27.3821C181.382 25.4773 181.797 23.1378 181.797 20.3636ZM210.288 40H196.366V0.727272H210.403C214.354 0.727272 217.754 1.51349 220.605 3.08594C223.456 4.64559 225.648 6.8892 227.183 9.81676C228.729 12.7443 229.503 16.2472 229.503 20.3253C229.503 24.4162 228.729 27.9318 227.183 30.8722C225.648 33.8125 223.443 36.0689 220.567 37.6413C217.703 39.2138 214.277 40 210.288 40ZM204.67 32.8857H209.943C212.398 32.8857 214.462 32.451 216.137 31.5817C217.825 30.6996 219.09 29.3381 219.934 27.4972C220.79 25.6435 221.219 23.2528 221.219 20.3253C221.219 17.4233 220.79 15.0518 219.934 13.2109C219.09 11.37 217.831 10.0149 216.156 9.14559C214.482 8.27628 212.417 7.84162 209.962 7.84162H204.67V32.8857Z"/>
</mask>
<path d="M37.2621 0.727272V40H30.0902L13.0043 15.282H12.7166V40H4.41335V0.727272H11.7003L28.652 25.4261H28.9972V0.727272H37.2621ZM78.7736 14.4766H70.3745C70.2211 13.3899 69.9078 12.4247 69.4348 11.581C68.9618 10.7244 68.3546 9.99574 67.6131 9.39489C66.8716 8.79403 66.0151 8.3338 65.0435 8.0142C64.0847 7.6946 63.0428 7.5348 61.9178 7.5348C59.8851 7.5348 58.1145 8.03977 56.606 9.04971C55.0975 10.0469 53.9277 11.5043 53.0968 13.4219C52.2658 15.3267 51.8503 17.6406 51.8503 20.3636C51.8503 23.1634 52.2658 25.5156 53.0968 27.4205C53.9405 29.3253 55.1167 30.7635 56.6252 31.7351C58.1337 32.7067 59.8787 33.1925 61.8603 33.1925C62.9725 33.1925 64.0016 33.0455 64.9476 32.7514C65.9064 32.4574 66.7566 32.0291 67.498 31.4666C68.2395 30.8913 68.8532 30.1946 69.339 29.3764C69.8375 28.5582 70.1827 27.625 70.3745 26.5767L78.7736 26.6151C78.5563 28.4176 78.013 30.1562 77.1436 31.831C76.2871 33.4929 75.1302 34.9822 73.6728 36.299C72.2282 37.603 70.5023 38.6385 68.4952 39.4055C66.5009 40.1598 64.2445 40.5369 61.726 40.5369C58.2232 40.5369 55.0911 39.7443 52.3297 38.1591C49.5811 36.5739 47.4078 34.2791 45.8098 31.2749C44.2246 28.2706 43.432 24.6335 43.432 20.3636C43.432 16.081 44.2374 12.4375 45.8482 9.43324C47.459 6.42898 49.6451 4.14062 52.4064 2.56818C55.1678 0.982954 58.2743 0.190339 61.726 0.190339C64.0016 0.190339 66.111 0.509942 68.0542 1.14915C70.0101 1.78835 71.7424 2.72159 73.2509 3.94886C74.7594 5.16335 75.9867 6.6527 76.9327 8.4169C77.8915 10.1811 78.5051 12.201 78.7736 14.4766ZM84.7278 40V0.727272H93.0311V16.9311H109.887V0.727272H118.171V40H109.887V23.777H93.0311V40H84.7278ZM125.017 40V0.727272H133.32V33.1541H150.157V40H125.017ZM190.216 20.3636C190.216 24.6463 189.404 28.2898 187.78 31.294C186.17 34.2983 183.971 36.593 181.184 38.1783C178.41 39.7507 175.29 40.5369 171.826 40.5369C168.336 40.5369 165.204 39.7443 162.43 38.1591C159.655 36.5739 157.463 34.2791 155.852 31.2749C154.241 28.2706 153.436 24.6335 153.436 20.3636C153.436 16.081 154.241 12.4375 155.852 9.43324C157.463 6.42898 159.655 4.14062 162.43 2.56818C165.204 0.982954 168.336 0.190339 171.826 0.190339C175.29 0.190339 178.41 0.982954 181.184 2.56818C183.971 4.14062 186.17 6.42898 187.78 9.43324C189.404 12.4375 190.216 16.081 190.216 20.3636ZM181.797 20.3636C181.797 17.5895 181.382 15.25 180.551 13.3452C179.733 11.4403 178.576 9.99574 177.08 9.01136C175.584 8.02699 173.833 7.5348 171.826 7.5348C169.819 7.5348 168.067 8.02699 166.572 9.01136C165.076 9.99574 163.912 11.4403 163.081 13.3452C162.263 15.25 161.854 17.5895 161.854 20.3636C161.854 23.1378 162.263 25.4773 163.081 27.3821C163.912 29.2869 165.076 30.7315 166.572 31.7159C168.067 32.7003 169.819 33.1925 171.826 33.1925C173.833 33.1925 175.584 32.7003 177.08 31.7159C178.576 30.7315 179.733 29.2869 180.551 27.3821C181.382 25.4773 181.797 23.1378 181.797 20.3636ZM210.288 40H196.366V0.727272H210.403C214.354 0.727272 217.754 1.51349 220.605 3.08594C223.456 4.64559 225.648 6.8892 227.183 9.81676C228.729 12.7443 229.503 16.2472 229.503 20.3253C229.503 24.4162 228.729 27.9318 227.183 30.8722C225.648 33.8125 223.443 36.0689 220.567 37.6413C217.703 39.2138 214.277 40 210.288 40ZM204.67 32.8857H209.943C212.398 32.8857 214.462 32.451 216.137 31.5817C217.825 30.6996 219.09 29.3381 219.934 27.4972C220.79 25.6435 221.219 23.2528 221.219 20.3253C221.219 17.4233 220.79 15.0518 219.934 13.2109C219.09 11.37 217.831 10.0149 216.156 9.14559C214.482 8.27628 212.417 7.84162 209.962 7.84162H204.67V32.8857Z" fill="#1065B8"/>
<path d="M37.2621 0.727272H38.2621V-0.272728H37.2621V0.727272ZM37.2621 40V41H38.2621V40H37.2621ZM30.0902 40L29.2676 40.5686L29.5658 41H30.0902V40ZM13.0043 15.282L13.8269 14.7133L13.5287 14.282H13.0043V15.282ZM12.7166 15.282V14.282H11.7166V15.282H12.7166ZM12.7166 40V41H13.7166V40H12.7166ZM4.41335 40H3.41335V41H4.41335V40ZM4.41335 0.727272V-0.272728H3.41335V0.727272H4.41335ZM11.7003 0.727272L12.5248 0.161395L12.2268 -0.272728H11.7003V0.727272ZM28.652 25.4261L27.8275 25.992L28.1255 26.4261H28.652V25.4261ZM28.9972 25.4261V26.4261H29.9972V25.4261H28.9972ZM28.9972 0.727272V-0.272728H27.9972V0.727272H28.9972ZM36.2621 0.727272V40H38.2621V0.727272H36.2621ZM37.2621 39H30.0902V41H37.2621V39ZM30.9128 39.4314L13.8269 14.7133L12.1817 15.8506L29.2676 40.5686L30.9128 39.4314ZM13.0043 14.282H12.7166V16.282H13.0043V14.282ZM11.7166 15.282V40H13.7166V15.282H11.7166ZM12.7166 39H4.41335V41H12.7166V39ZM5.41335 40V0.727272H3.41335V40H5.41335ZM4.41335 1.72727H11.7003V-0.272728H4.41335V1.72727ZM10.8758 1.29315L27.8275 25.992L29.4765 24.8603L12.5248 0.161395L10.8758 1.29315ZM28.652 26.4261H28.9972V24.4261H28.652V26.4261ZM29.9972 25.4261V0.727272H27.9972V25.4261H29.9972ZM28.9972 1.72727H37.2621V-0.272728H28.9972V1.72727ZM78.7736 14.4766V15.4766H79.8985L79.7667 14.3594L78.7736 14.4766ZM70.3745 14.4766L69.3843 14.6164L69.5057 15.4766H70.3745V14.4766ZM69.4348 11.581L68.5594 12.0644L68.5626 12.07L69.4348 11.581ZM67.6131 9.39489L66.9835 10.1718V10.1718L67.6131 9.39489ZM65.0435 8.0142L64.7273 8.96289L64.731 8.96413L65.0435 8.0142ZM56.606 9.04972L57.1574 9.88395L57.1623 9.88068L56.606 9.04972ZM53.0968 13.4219L54.0134 13.8217L54.0143 13.8195L53.0968 13.4219ZM53.0968 27.4205L52.1802 27.8203L52.1825 27.8255L53.0968 27.4205ZM56.6252 31.7351L56.0837 32.5758L56.6252 31.7351ZM64.9476 32.7514L64.6544 31.7954L64.6508 31.7965L64.9476 32.7514ZM67.498 31.4666L68.1025 32.2634L68.111 32.2567L67.498 31.4666ZM69.339 29.3764L68.485 28.856L68.4791 28.8659L69.339 29.3764ZM70.3745 26.5767L70.379 25.5767L69.5415 25.5729L69.3908 26.3968L70.3745 26.5767ZM78.7736 26.6151L79.7664 26.7348L79.9008 25.6202L78.7782 25.6151L78.7736 26.6151ZM77.1436 31.831L76.2561 31.3703L76.2548 31.3728L77.1436 31.831ZM73.6728 36.299L74.3428 37.0413L74.3432 37.041L73.6728 36.299ZM68.4952 39.4055L68.849 40.3409L68.8522 40.3396L68.4952 39.4055ZM52.3297 38.1591L51.8301 39.0253L51.8319 39.0263L52.3297 38.1591ZM45.8098 31.2749L44.9254 31.7415L44.927 31.7445L45.8098 31.2749ZM45.8482 9.43324L46.7295 9.90577L45.8482 9.43324ZM52.4064 2.56818L52.9013 3.43717L52.9043 3.43544L52.4064 2.56818ZM68.0542 1.14915L67.7417 2.09907L67.7435 2.09968L68.0542 1.14915ZM73.2509 3.94886L72.6198 4.72458L72.6238 4.72779L73.2509 3.94886ZM76.9327 8.4169L76.0514 8.88949L76.0541 8.89441L76.9327 8.4169ZM78.7736 13.4766H70.3745V15.4766H78.7736V13.4766ZM71.3646 14.3368C71.1962 13.1438 70.8483 12.0573 70.3071 11.092L68.5626 12.07C68.9674 12.7921 69.2459 13.636 69.3843 14.6164L71.3646 14.3368ZM70.3102 11.0975C69.7766 10.1312 69.0868 9.30196 68.2427 8.61795L66.9835 10.1718C67.6224 10.6895 68.1471 11.3177 68.5594 12.0644L70.3102 11.0975ZM68.2427 8.61795C67.4003 7.93533 66.4346 7.41908 65.356 7.06428L64.731 8.96413C65.5956 9.24853 66.3429 9.65273 66.9835 10.1718L68.2427 8.61795ZM65.3597 7.06552C64.2881 6.70832 63.1382 6.5348 61.9178 6.5348V8.5348C62.9474 8.5348 63.8813 8.68089 64.7273 8.96289L65.3597 7.06552ZM61.9178 6.5348C59.7116 6.5348 57.7421 7.08568 56.0497 8.21875L57.1623 9.88068C58.4869 8.99386 60.0586 8.5348 61.9178 8.5348V6.5348ZM56.0546 8.2155C54.3602 9.33548 53.075 10.9571 52.1792 13.0243L54.0143 13.8195C54.7805 12.0514 55.8347 10.7583 57.1574 9.88393L56.0546 8.2155ZM52.1802 13.022C51.28 15.0856 50.8503 17.5437 50.8503 20.3636H52.8503C52.8503 17.7375 53.2516 15.5678 54.0133 13.8217L52.1802 13.022ZM50.8503 20.3636C50.8503 23.2558 51.2786 25.7537 52.1802 27.8203L54.0133 27.0206C53.253 25.2776 52.8503 23.0709 52.8503 20.3636H50.8503ZM52.1825 27.8255C53.0922 29.8794 54.3859 31.4823 56.0837 32.5758L57.1667 30.8944C55.8474 30.0447 54.7888 28.7712 54.0111 27.0155L52.1825 27.8255ZM56.0837 32.5758C57.7703 33.6621 59.7075 34.1925 61.8603 34.1925V32.1925C60.05 32.1925 58.4971 31.7513 57.1667 30.8944L56.0837 32.5758ZM61.8603 34.1925C63.0609 34.1925 64.1913 34.0337 65.2444 33.7064L64.6508 31.7965C63.8119 32.0572 62.884 32.1925 61.8603 32.1925V34.1925ZM65.2408 33.7075C66.3032 33.3817 67.2604 32.9021 68.1024 32.2633L66.8937 30.6699C66.2528 31.1561 65.5097 31.5331 64.6544 31.7954L65.2408 33.7075ZM68.111 32.2567C68.953 31.6035 69.6499 30.8114 70.1988 29.887L68.4791 28.8659C68.0564 29.5778 67.526 30.1792 66.885 30.6765L68.111 32.2567ZM70.1929 29.8968C70.762 28.9629 71.1468 27.9119 71.3581 26.7566L69.3908 26.3968C69.2186 27.3381 68.9131 28.1535 68.485 28.856L70.1929 29.8968ZM70.3699 27.5767L78.7691 27.615L78.7782 25.6151L70.379 25.5767L70.3699 27.5767ZM77.7808 26.4954C77.5784 28.1742 77.0724 29.7977 76.2561 31.3703L78.0312 32.2917C78.9536 30.5148 79.5342 28.661 79.7664 26.7348L77.7808 26.4954ZM76.2548 31.3728C75.4561 32.9224 74.375 34.3168 73.0024 35.557L74.3432 37.041C75.8853 35.6477 77.1181 34.0634 78.0325 32.2891L76.2548 31.3728ZM73.0027 35.5567C71.6588 36.7698 70.042 37.7439 68.1382 38.4714L68.8522 40.3396C70.9626 39.5331 72.7975 38.4362 74.3428 37.0413L73.0027 35.5567ZM68.1415 38.4702C66.2786 39.1747 64.1451 39.5369 61.726 39.5369V41.5369C64.3439 41.5369 66.7232 41.1449 68.849 40.3409L68.1415 38.4702ZM61.726 39.5369C58.3799 39.5369 55.4226 38.7816 52.8276 37.2918L51.8319 39.0263C54.7596 40.7071 58.0664 41.5369 61.726 41.5369V39.5369ZM52.8293 37.2928C50.255 35.8081 48.2093 33.6565 46.6927 30.8052L44.927 31.7445C46.6064 34.9018 48.9073 37.3396 51.8301 39.0253L52.8293 37.2928ZM46.6943 30.8082C45.202 27.9801 44.432 24.5118 44.432 20.3636H42.432C42.432 24.7552 43.2472 28.5611 44.9254 31.7415L46.6943 30.8082ZM44.432 20.3636C44.432 16.2044 45.2141 12.7321 46.7295 9.90577L44.9669 8.9607C43.2607 12.1429 42.432 15.9575 42.432 20.3636H44.432ZM46.7295 9.90577C48.2581 7.05482 50.3154 4.90965 52.9013 3.43717L51.9116 1.6992C48.9747 3.3716 46.6599 5.80313 44.9669 8.96071L46.7295 9.90577ZM52.9043 3.43544C55.5015 1.94442 58.4339 1.19034 61.726 1.19034V-0.809661C58.1148 -0.809661 54.834 0.0214825 51.9086 1.70093L52.9043 3.43544ZM61.726 1.19034C63.9073 1.19034 65.91 1.49654 67.7417 2.09907L68.3666 0.199221C66.312 -0.476658 64.0959 -0.809661 61.726 -0.809661V1.19034ZM67.7435 2.09968C69.5897 2.703 71.2119 3.57917 72.6198 4.72457L73.882 3.17315C72.2728 1.86401 70.4305 0.873698 68.3648 0.198616L67.7435 2.09968ZM72.6238 4.72779C74.0244 5.85538 75.1666 7.23933 76.0514 8.88948L77.814 7.94433C76.8068 6.06606 75.4945 4.47132 73.878 3.16993L72.6238 4.72779ZM76.0541 8.89441C76.9442 10.5322 77.5248 12.4268 77.7805 14.5937L79.7667 14.3594C79.4854 11.9752 78.8388 9.82998 77.8113 7.93939L76.0541 8.89441ZM84.7278 40H83.7278V41H84.7278V40ZM84.7278 0.727272V-0.272728H83.7278V0.727272H84.7278ZM93.0311 0.727272H94.0311V-0.272728H93.0311V0.727272ZM93.0311 16.9311H92.0311V17.9311H93.0311V16.9311ZM109.887 16.9311V17.9311H110.887V16.9311H109.887ZM109.887 0.727272V-0.272728H108.887V0.727272H109.887ZM118.171 0.727272H119.171V-0.272728H118.171V0.727272ZM118.171 40V41H119.171V40H118.171ZM109.887 40H108.887V41H109.887V40ZM109.887 23.777H110.887V22.777H109.887V23.777ZM93.0311 23.777V22.777H92.0311V23.777H93.0311ZM93.0311 40V41H94.0311V40H93.0311ZM85.7278 40V0.727272H83.7278V40H85.7278ZM84.7278 1.72727H93.0311V-0.272728H84.7278V1.72727ZM92.0311 0.727272V16.9311H94.0311V0.727272H92.0311ZM93.0311 17.9311H109.887V15.9311H93.0311V17.9311ZM110.887 16.9311V0.727272H108.887V16.9311H110.887ZM109.887 1.72727H118.171V-0.272728H109.887V1.72727ZM117.171 0.727272V40H119.171V0.727272H117.171ZM118.171 39H109.887V41H118.171V39ZM110.887 40V23.777H108.887V40H110.887ZM109.887 22.777H93.0311V24.777H109.887V22.777ZM92.0311 23.777V40H94.0311V23.777H92.0311ZM93.0311 39H84.7278V41H93.0311V39ZM125.017 40H124.017V41H125.017V40ZM125.017 0.727272V-0.272728H124.017V0.727272H125.017ZM133.32 0.727272H134.32V-0.272728H133.32V0.727272ZM133.32 33.1541H132.32V34.1541H133.32V33.1541ZM150.157 33.1541H151.157V32.1541H150.157V33.1541ZM150.157 40V41H151.157V40H150.157ZM126.017 40V0.727272H124.017V40H126.017ZM125.017 1.72727H133.32V-0.272728H125.017V1.72727ZM132.32 0.727272V33.1541H134.32V0.727272H132.32ZM133.32 34.1541H150.157V32.1541H133.32V34.1541ZM149.157 33.1541V40H151.157V33.1541H149.157ZM150.157 39H125.017V41H150.157V39ZM187.78 31.294L186.901 30.8186L186.899 30.8215L187.78 31.294ZM181.184 38.1783L181.677 39.0482L181.678 39.0475L181.184 38.1783ZM162.43 38.1591L162.926 37.2908L162.43 38.1591ZM155.852 31.2749L154.971 31.7474L155.852 31.2749ZM155.852 9.43324L156.733 9.90577L155.852 9.43324ZM162.43 2.56818L162.923 3.43815L162.926 3.43643L162.43 2.56818ZM181.184 2.56818L180.688 3.43644L180.692 3.43912L181.184 2.56818ZM187.78 9.43324L186.899 9.90578L186.901 9.90868L187.78 9.43324ZM180.551 13.3452L179.632 13.7398L179.634 13.745L180.551 13.3452ZM177.08 9.01136L176.53 9.84669L177.08 9.01136ZM166.572 9.01136L167.121 9.84669L166.572 9.01136ZM163.081 13.3452L162.165 12.9453L162.163 12.9505L163.081 13.3452ZM163.081 27.3821L162.163 27.7768L162.165 27.782L163.081 27.3821ZM166.572 31.7159L167.121 30.8806L166.572 31.7159ZM177.08 31.7159L176.53 30.8806L177.08 31.7159ZM180.551 27.3821L179.634 26.9822L179.632 26.9874L180.551 27.3821ZM189.216 20.3636C189.216 24.5217 188.428 27.9929 186.901 30.8186L188.66 31.7695C190.38 28.5866 191.216 24.7709 191.216 20.3636H189.216ZM186.899 30.8215C185.371 33.6707 183.302 35.8229 180.689 37.309L181.678 39.0475C184.639 37.3632 186.968 34.9259 188.662 31.7666L186.899 30.8215ZM180.691 37.3083C178.08 38.7882 175.133 39.5369 171.826 39.5369V41.5369C175.448 41.5369 178.74 40.7132 181.677 39.0482L180.691 37.3083ZM171.826 39.5369C168.493 39.5369 165.535 38.7819 162.926 37.2908L161.933 39.0273C164.872 40.7067 168.178 41.5369 171.826 41.5369V39.5369ZM162.926 37.2908C160.326 35.805 158.262 33.6527 156.733 30.8023L154.971 31.7474C156.664 34.9055 158.985 37.3427 161.933 39.0273L162.926 37.2908ZM156.733 30.8023C155.218 27.9756 154.436 24.5095 154.436 20.3636H152.436C152.436 24.7575 153.265 28.5656 154.971 31.7474L156.733 30.8023ZM154.436 20.3636C154.436 16.2044 155.218 12.7321 156.733 9.90577L154.971 8.9607C153.265 12.1429 152.436 15.9575 152.436 20.3636H154.436ZM156.733 9.90577C158.261 7.056 160.324 4.91095 162.923 3.43815L161.936 1.69822C158.986 3.3703 156.664 5.80195 154.971 8.96071L156.733 9.90577ZM162.926 3.43643C165.535 1.94538 168.493 1.19034 171.826 1.19034V-0.809661C168.178 -0.809661 164.872 0.0205278 161.933 1.69994L162.926 3.43643ZM171.826 1.19034C175.131 1.19034 178.077 1.94474 180.688 3.43643L181.68 1.69994C178.742 0.0211658 175.449 -0.809661 171.826 -0.809661V1.19034ZM180.692 3.43912C183.303 4.91224 185.372 7.05718 186.899 9.90577L188.662 8.96071C186.967 5.80077 184.638 3.36901 181.675 1.69725L180.692 3.43912ZM186.901 9.90868C188.428 12.7344 189.216 16.2056 189.216 20.3636H191.216C191.216 15.9564 190.38 12.1406 188.66 8.9578L186.901 9.90868ZM182.797 20.3636C182.797 17.4955 182.369 15.0109 181.468 12.9453L179.634 13.745C180.395 15.4891 180.797 17.6834 180.797 20.3636H182.797ZM181.47 12.9505C180.587 10.8949 179.314 9.28419 177.63 8.17603L176.53 9.84669C177.838 10.7073 178.879 11.9858 179.632 13.7398L181.47 12.9505ZM177.63 8.17603C175.952 7.07154 174.004 6.5348 171.826 6.5348V8.5348C173.662 8.5348 175.217 8.98243 176.53 9.84669L177.63 8.17603ZM171.826 6.5348C169.648 6.5348 167.7 7.07154 166.022 8.17603L167.121 9.84669C168.435 8.98243 169.99 8.5348 171.826 8.5348V6.5348ZM166.022 8.17603C164.339 9.2832 163.061 10.892 162.165 12.9453L163.998 13.745C164.764 11.9886 165.812 10.7083 167.121 9.84669L166.022 8.17603ZM162.163 12.9505C161.276 15.0145 160.854 17.4972 160.854 20.3636H162.854C162.854 17.6818 163.251 15.4855 164 13.7398L162.163 12.9505ZM160.854 20.3636C160.854 23.2301 161.276 25.7127 162.163 27.7768L164 26.9874C163.251 25.2418 162.854 23.0455 162.854 20.3636H160.854ZM162.165 27.782C163.061 29.8352 164.339 31.4441 166.022 32.5512L167.121 30.8806C165.812 30.019 164.764 28.7386 163.998 26.9823L162.165 27.782ZM166.022 32.5512C167.7 33.6557 169.648 34.1925 171.826 34.1925V32.1925C169.99 32.1925 168.435 31.7448 167.121 30.8806L166.022 32.5512ZM171.826 34.1925C174.004 34.1925 175.952 33.6557 177.63 32.5512L176.53 30.8806C175.217 31.7448 173.662 32.1925 171.826 32.1925V34.1925ZM177.63 32.5512C179.314 31.4431 180.587 29.8324 181.47 27.7768L179.632 26.9874C178.879 28.7415 177.838 30.02 176.53 30.8806L177.63 32.5512ZM181.468 27.782C182.369 25.7163 182.797 23.2317 182.797 20.3636H180.797C180.797 23.0438 180.395 25.2382 179.634 26.9823L181.468 27.782ZM196.366 40H195.366V41H196.366V40ZM196.366 0.727272V-0.272728H195.366V0.727272H196.366ZM220.605 3.08594L220.122 3.96158L220.125 3.96323L220.605 3.08594ZM227.183 9.81676L226.297 10.2809L226.298 10.2839L227.183 9.81676ZM227.183 30.8722L226.298 30.4066L226.296 30.4096L227.183 30.8722ZM220.567 37.6413L220.087 36.7639L220.085 36.7648L220.567 37.6413ZM204.67 32.8857H203.67V33.8857H204.67V32.8857ZM216.137 31.5817L216.598 32.4692L216.6 32.4679L216.137 31.5817ZM219.934 27.4972L219.026 27.0777L219.025 27.0805L219.934 27.4972ZM219.934 13.2109L219.025 13.6276L219.027 13.6328L219.934 13.2109ZM216.156 9.1456L216.617 8.25805L216.156 9.1456ZM204.67 7.84162V6.84162H203.67V7.84162H204.67ZM210.288 39H196.366V41H210.288V39ZM197.366 40V0.727272H195.366V40H197.366ZM196.366 1.72727H210.403V-0.272728H196.366V1.72727ZM210.403 1.72727C214.221 1.72727 217.448 2.48641 220.122 3.96157L221.088 2.2103C218.061 0.540576 214.487 -0.272728 210.403 -0.272728V1.72727ZM220.125 3.96323C222.8 5.42651 224.853 7.5249 226.297 10.2809L228.068 9.35261C226.444 6.2535 224.112 3.86468 221.085 2.20864L220.125 3.96323ZM226.298 10.2839C227.754 13.0379 228.503 16.3728 228.503 20.3253H230.503C230.503 16.1215 229.705 12.4507 228.067 9.34958L226.298 10.2839ZM228.503 20.3253C228.503 24.2909 227.753 27.6393 226.298 30.4066L228.068 31.3377C229.705 28.2243 230.503 24.5414 230.503 20.3253H228.503ZM226.296 30.4096C224.852 33.1766 222.788 35.2876 220.087 36.7639L221.046 38.5188C224.099 36.8502 226.445 34.4484 228.069 31.3347L226.296 30.4096ZM220.085 36.7648C217.399 38.2402 214.146 39 210.288 39V41C214.408 41 218.008 40.1874 221.048 38.5179L220.085 36.7648ZM204.67 33.8857H209.943V31.8857H204.67V33.8857ZM209.943 33.8857C212.511 33.8857 214.744 33.4313 216.598 32.4692L215.676 30.6941C214.18 31.4707 212.284 31.8857 209.943 31.8857V33.8857ZM216.6 32.4679C218.497 31.4763 219.913 29.9427 220.843 27.9138L219.025 27.0805C218.267 28.7335 217.152 29.9229 215.674 30.6954L216.6 32.4679ZM220.842 27.9166C221.779 25.8872 222.219 23.3395 222.219 20.3253H220.219C220.219 23.1662 219.802 25.3997 219.026 27.0777L220.842 27.9166ZM222.219 20.3253C222.219 17.3356 221.779 14.8062 220.841 12.7891L219.027 13.6328C219.802 15.2975 220.219 17.511 220.219 20.3253H222.219ZM220.843 12.7943C219.914 10.7667 218.504 9.23775 216.617 8.25805L215.696 10.0331C217.158 10.7921 218.267 11.9734 219.025 13.6276L220.843 12.7943ZM216.617 8.25805C214.764 7.296 212.531 6.84162 209.962 6.84162V8.84162C212.303 8.84162 214.199 9.25656 215.696 10.0331L216.617 8.25805ZM209.962 6.84162H204.67V8.84162H209.962V6.84162ZM203.67 7.84162V32.8857H205.67V7.84162H203.67Z" fill="black" mask="url(#path-1-outside-1_63_210)"/>
</g>
<defs>
<filter id="filter0_d_63_210" x="0.413086" y="0.190338" width="233.09" height="48.3466" filterUnits="userSpaceOnUse" color-interpolation-filters="sRGB">
<feFlood flood-opacity="0" result="BackgroundImageFix"/>
<feColorMatrix in="SourceAlpha" type="matrix" values="0 0 0 0 0 0 0 0 0 0 0 0 0 0 0 0 0 0 127 0" result="hardAlpha"/>
<feOffset dy="4"/>
<feGaussianBlur stdDeviation="2"/>
<feComposite in2="hardAlpha" operator="out"/>
<feColorMatrix type="matrix" values="0 0 0 0 0 0 0 0 0 0 0 0 0 0 0 0 0 0 0.25 0"/>
<feBlend mode="normal" in2="BackgroundImageFix" result="effect1_dropShadow_63_210"/>
<feBlend mode="normal" in="SourceGraphic" in2="effect1_dropShadow_63_210" result="shape"/>
</filter>
</defs>
</svg>
